<svg height="512pt" viewBox="0 0 512 512" width="512pt" xmlns="http://www.w3.org/2000/svg"><path d="m4.285156 274.277344c-1.660156.886718-3.664062-.265625-3.78125-2.140625-.332031-5.335938-.503906-10.714844-.503906-16.136719 0-141.386719 114.613281-256 256-256 126.046875 0 230.8125 91.097656 252.058594 211.042969 2.417968 13.640625-2.988282 27.402343-13.910156 35.921875-18.523438 14.453125-30.4375 36.976562-30.4375 62.296875 0 4.085937.308593 8.101562.90625 12.019531-4-.476562-8.066407-.730469-12.195313-.730469-4.757813 0-9.429687.335938-14.011719.96875-60.605468-34.679687-136.351562-33-195.496094 5.035157-5.0625-6.628907-10.617187-13.003907-16.675781-19.066407-60.09375-60.09375-150.636719-71.15625-221.953125-33.210937zm0 0" fill="#9cc5d2"/><path d="m238.691406 511.425781c-26.394531-1.765625-51.683594-7.539062-75.285156-16.703125-.855469-.332031-1.550781-.976562-1.996094-1.78125-6.523437-11.832031-19.109375-19.847656-33.574218-19.847656-1.839844 0-3.644532.136719-5.410157.386719-.773437.113281-1.566406-.035157-2.226562-.453125-68.011719-42.652344-114.554688-116.382813-119.703125-201.296875 65.609375-58.457031 166.242187-56.230469 229.171875 6.699219 5.367187 5.367187 10.285156 11.015624 14.769531 16.886718 64.6875-41.597656 151.785156-34.105468 208.386719 22.492188 4.800781 4.804687-208.414063 193.996094-214.132813 193.617187zm0 0" fill="#027147"/><path d="m240 450c0-49.707031 40.292969-90 90-90 4.089844 0 8.113281.277344 12.058594.808594 8.792968-40.484375 44.824218-70.808594 87.941406-70.808594 3.65625 0 7.261719.222656 10.804688.648438-.53125-3.472657-.804688-7.027344-.804688-10.648438 0-37.949219 30.203125-68.824219 67.882812-69.945312 2.699219 14.90625 4.117188 30.257812 4.117188 45.945312 0 32.503906-6.058594 63.589844-17.105469 92.191406-8.601562 22.277344-22.242187 39.796875-36.394531 58.558594-10.644531 14.113281-20.710938 30.339844-33.996094 41.964844-10.746094 9.402344-22.285156 17.921875-34.503906 25.441406-4.488281 2.757812-9.066406 3.386719-13.730469 5.875-4.664062 2.484375-9.414062 6.832031-14.246093 9.03125-29.84375 13.597656-62.753907 21.628906-97.410157 22.777344-15.253906-16.125-24.613281-37.890625-24.613281-61.839844zm0 0" fill="#029863"/><path d="m263.335938 122.667969h46.261718v383.695312c-14.980468 3.191407-30.441406 5.078125-46.261718 5.523438zm0 0" fill="#d28601"/><path d="m309.597656 228.195312v278.167969c-9.828125 2.09375-19.863281 3.621094-30.070312 4.550781v-282.71875c0-7.179687 5.820312-13 13-13h4.070312c7.179688 0 13 5.820313 13 13zm152.183594 112.660157c2.027344-3.128907 3.21875-6.847657 3.21875-10.855469 0-11.046875-8.953125-20-20-20s-20 8.953125-20 20c0 4.003906 1.191406 7.726562 3.21875 10.855469-44.464844 4.589843-78.21875 27.085937-78.21875 54.144531 0 26.300781 31.890625 48.285156 74.503906 53.710938 30.945313-27.078126 55.304688-61.488282 70.378906-100.523438-9.960937-3.566406-21.144531-6.097656-33.101562-7.332031zm0 0" fill="#f39d0b"/><path d="m362.027344 410h27.972656v64.15625c-8.972656 5.523438-18.308594 10.511719-27.972656 14.914062zm0 0" fill="#df8c00"/><path d="m460.503906 410h-110.503906c-5.523438 0-10-4.476562-10-10v-10c0-5.523438 4.476562-10 10-10h129.996094c-5.808594 10.472656-12.320313 20.496094-19.492188 30zm0 0" fill="#d28601"/><path d="m512 151.199219v11.25c0 16.9375-13.730469 30.667969-30.664062 30.667969h-61.6875c-.046876 0-.09375 0-.140626 0-7.253906-.035157-13.042968-6.09375-13.042968-13.34375 0-5.398438-4.375-9.773438-9.769532-9.773438h-220.457031c-5.398437 0-9.773437 4.375-9.773437 9.773438 0 7.25-5.789063 13.308593-13.039063 13.34375-.046875 0-.09375 0-.140625 0h-61.6875c-16.9375 0-30.664062-13.730469-30.664062-30.667969v-11.25h.015625c.355469-16.203125 10.1875-30.730469 25.171875-37.046875l201.710937-85.058594 199.144531 85c14.933594 6.375 24.703126 20.917969 25.007813 37.105469zm0 0" fill="#e62a2a"/><path d="m60.933594 151.199219h123.015625v11.25c0 16.9375-13.726563 30.664062-30.664063 30.664062h-61.6875c-16.9375 0-30.664062-13.726562-30.664062-30.664062zm328.046875 0v11.25c0 16.9375 13.730469 30.664062 30.667969 30.664062h61.683593c16.9375 0 30.667969-13.726562 30.667969-30.664062v-11.25zm0 0" fill="#d22424"/><path d="m402.648438 151.199219v11.25c0 16.9375-13.726563 30.664062-30.664063 30.664062h-61.6875c-9.625 0-18.207031-4.433593-23.832031-11.371093-5.621094 6.9375-14.207032 11.371093-23.832032 11.371093h-61.683593c-16.9375 0-30.667969-13.726562-30.667969-30.664062v-10.339844-.003906-.90625h.027344c.265625-16.964844 7.972656-32.976563 21.125-43.742188l96.398437-78.367187 93.929688 78.375c13.050781 10.8125 20.664062 26.8125 20.867187 43.734375zm0 0" fill="#d5a500"/><path d="m170.308594 151.199219c.265625-16.964844 7.972656-32.976563 21.128906-43.742188l96.398438-78.367187 93.925781 78.375c13.050781 10.8125 20.664062 26.8125 20.871093 43.734375zm0 0" fill="#f7c12c"/><path d="m225.523438 432.808594 75.277343 75.277344c-14.546875 2.570312-29.515625 3.914062-44.800781 3.914062-5.816406 0-11.585938-.214844-17.308594-.59375l-45.878906-45.882812-29.261719 29.257812c-15.28125-5.917969-29.851562-13.265625-43.550781-21.875l40.097656-40.09375-124.476562-124.476562 9.355468-9.359376c12.902344-12.898437 33.8125-12.898437 46.714844 0l101.121094 101.121094 91.761719-91.761718c18.066406-18.070313 47.359375-18.070313 65.425781 0zm0 0" fill="#f6ab39"/><path d="m160.914062 410.730469-39.226562-39.226563c-5.074219-5.078125-5.074219-13.308594 0-18.386718l2.878906-2.878907c5.078125-5.078125 13.308594-5.078125 18.386719 0l39.226563 39.226563c5.871093 5.871094 5.871093 15.390625 0 21.265625-5.871094 5.871093-15.394532 5.871093-21.265626 0zm139.886719 97.355469-75.277343-75.277344 49.859374-49.855469c5.074219-5.078125 5.074219-13.308594 0-18.386719l-2.878906-2.878906c-5.078125-5.074219-13.308594-5.074219-18.386718 0l-119.664063 119.667969c9.363281 5.058593 19.078125 9.546875 29.097656 13.425781l40.710938-40.707031 57.847656 57.847656c13.167969-.308594 26.085937-1.609375 38.691406-3.835937zm0 0" fill="#f7b75e"/><path d="m380.621094 330h-375.621094c-2.761719 0-5-2.238281-5-5v-40c0-2.761719 2.238281-5 5-5h375.621094c2.761718 0 5 2.238281 5 5v40c0 2.761719-2.238282 5-5 5zm0 0" fill="#f5d574"/><path d="m380.621094 310h-345.621094c-2.761719 0-5-2.238281-5-5v-20c0-2.761719 2.238281-5 5-5h345.621094c2.761718 0 5 2.238281 5 5v20c0 2.761719-2.238282 5-5 5zm0 0" fill="#f7de91"/></svg>