<svg height="512pt" viewBox="0 0 512 512" width="512pt" xmlns="http://www.w3.org/2000/svg"><path d="m250 436v16l19 49.980469c.328125.007812.660156.019531 1 .019531h212c11.050781 0 20-8.949219 20-20v-46zm0 0" fill="#f6838d"/><path d="m416 10h-80c-11.050781 0-20 8.949219-20 20 0 11.039062 8.960938 20 20 20h20v40c-11.050781 0-20 8.949219-20 20v52.601562h80v-52.601562c0-11.050781-8.949219-20-20-20v-40h20c11.050781 0 20-8.949219 20-20 0-11.039062-8.960938-20-20-20zm0 0" fill="#edf2fa"/><path d="m502 276v160h-252v-160c0-6.820312.628906-13.5 1.839844-20h248.320312c1.210938 6.5 1.839844 13.179688 1.839844 20zm0 0" fill="#edf2fa"/><path d="m426 346c0 27.613281-22.386719 50-50 50s-50-22.386719-50-50 22.386719-50 50-50 50 22.386719 50 50zm0 0" fill="#f6838d"/><path d="m376 156c59.398438 0 113.632812 43.199219 124.160156 100h-248.320312c10.527344-56.796875 64.757812-100 124.160156-100zm0 0" fill="#f6838d"/><path d="m270 492c0 3.410156-.339844 6.761719-1 9.980469v.019531h-258c-.660156-3.230469-1-6.578125-1-10 0-31.539062 28.949219-55.367188 60.121094-48.980469 13.679687-24.46875 39.847656-47.019531 69.878906-47.019531s56.199219 22.550781 69.878906 47.019531c3.269532-.667969 6.652344-1.019531 10.121094-1.019531 27.539062 0 50 22.339844 50 50zm0 0" fill="#edf2fa"/><path d="m230 186c0 16.570312-13.429688 30-30 30s-30-13.429688-30-30 30-70 30-70 30 53.429688 30 70zm0 0" fill="#9bc6ff"/><path d="m130 306c0 16.570312-13.429688 30-30 30s-30-13.429688-30-30 30-70 30-70 30 53.429688 30 70zm0 0" fill="#9bc6ff"/><path d="m180 296c0 5.523438-4.476562 10-10 10s-10-4.476562-10-10 4.476562-10 10-10 10 4.476562 10 10zm0 0"/><path d="m140 116c0 5.523438-4.476562 10-10 10s-10-4.476562-10-10 4.476562-10 10-10 10 4.476562 10 10zm0 0"/><path d="m426 155.625v-45.625c0-13.035156-8.359375-24.152344-20-28.28125v-21.71875h10c16.542969 0 30-13.457031 30-30 0-16.574219-13.425781-30-30-30h-80c-13.035156 0-24.152344 8.359375-28.28125 20h-51.71875c-16.542969 0-30 13.457031-30 30 0 5.523438 4.476562 10 10 10s10-4.476562 10-10c0-5.515625 4.484375-10 10-10h51.703125c4.019531 11.390625 14.96875 20 28.296875 20h10v21.71875c-11.640625 4.128906-20 15.246094-20 28.28125v45.628906c-49.117188 19.386719-86 66.378906-86 120.371094v20c0 5.523438 4.476562 10 10 10s10-4.476562 10-10v-20c0-3.339844.183594-6.679688.519531-10h230.960938c.335937 3.320312.519531 6.660156.519531 10v150h-232v-50c0-5.523438-4.476562-10-10-10s-10 4.476562-10 10v59.417969c-8.027344-2.84375-16.515625-3.902344-24.972656-3.214844-14.582032-22.503906-41.492188-46.203125-75.027344-46.203125s-60.445312 23.699219-75.027344 46.203125c-35.09375-2.863281-64.972656 24.867187-64.972656 59.796875 0 4.058594.40625 8.097656 1.203125 12.003906.949219 4.652344 5.046875 7.996094 9.796875 7.996094h471c16.542969 0 30-13.457031 30-30v-206c0-53.902344-36.796875-100.953125-86-120.375zm-406 336.375c0-22.054688 17.945312-40 40-40 2.738281 0 5.46875.273438 8.113281.816406 4.269531.871094 8.609375-1.113281 10.734375-4.917968 10.804688-19.328126 33.304688-41.898438 61.152344-41.898438s50.347656 22.570312 61.152344 41.898438c2.125 3.800781 6.46875 5.789062 10.734375 4.917968 2.644531-.542968 5.375-.816406 8.113281-.816406 21.625 0 40 17.414062 40 40zm472-10c0 5.515625-4.484375 10-10 10h-202c0-17.3125-7.242188-33.320312-20-44.6875v-1.3125h232zm-156-442c-5.519531 0-10-4.480469-10-10 0-5.515625 4.484375-10 10-10h80c5.519531 0 10 4.480469 10 10 0 5.515625-4.484375 10-10 10zm50 20v20h-20v-20zm-40 50c0-5.515625 4.484375-10 10-10h40c5.515625 0 10 4.484375 10 10v39.441406c-10.21875-2.328125-20.613281-3.453125-31-3.378906-9.722656.074219-19.4375 1.199219-29 3.375zm-81.359375 136c14.269531-45.214844 59.695313-79.554688 110.359375-79.902344 50.722656-.347656 97.539062 32.957032 112.359375 79.902344zm0 0"/><path d="m436 346c0-33.085938-26.914062-60-60-60s-60 26.914062-60 60 26.914062 60 60 60 60-26.914062 60-60zm-100 0c0-22.054688 17.945312-40 40-40s40 17.945312 40 40-17.945312 40-40 40-40-17.945312-40-40zm0 0"/><path d="m100 226c-3.617188 0-6.949219 1.949219-8.71875 5.105469-5.222656 9.300781-31.28125 56.632812-31.28125 74.894531 0 22.054688 17.945312 40 40 40s40-17.945312 40-40c0-18.261719-26.058594-65.59375-31.28125-74.894531-1.769531-3.15625-5.101562-5.105469-8.71875-5.105469zm0 100c-11.027344 0-20-8.972656-20-20 0-6.796875 9.289062-28.105469 20-48.882812 10.710938 20.777343 20 42.085937 20 48.882812 0 11.027344-8.972656 20-20 20zm0 0"/><path d="m200 226c22.054688 0 40-17.945312 40-40 0-18.261719-26.058594-65.59375-31.28125-74.894531-1.769531-3.15625-5.101562-5.105469-8.71875-5.105469s-6.949219 1.949219-8.71875 5.105469c-5.222656 9.300781-31.28125 56.632812-31.28125 74.894531 0 22.054688 17.945312 40 40 40zm0-88.882812c10.710938 20.777343 20 42.085937 20 48.882812 0 11.027344-8.972656 20-20 20s-20-8.972656-20-20c0-6.796875 9.289062-28.105469 20-48.882812zm0 0"/><path d="m260 336c0 5.523438-4.476562 10-10 10s-10-4.476562-10-10 4.476562-10 10-10 10 4.476562 10 10zm0 0"/></svg>