<svg height="512pt" viewBox="0 -11 512.00087 512" width="512pt" xmlns="http://www.w3.org/2000/svg"><path d="m314.824219 294.507812c51.695312 0 93.597656 41.902344 93.597656 93.59375 0 51.695313-41.902344 93.597657-93.597656 93.597657-30.828125 0-125.671875-33.292969-197.203125-60.167969-30.890625-11.605469-30.890625-55.25 0-66.855469 71.53125-26.875 166.375-60.167969 197.203125-60.167969zm0 0" fill="#b66652"/><path d="m408.421875 388.101562c0-41.003906-26.371094-75.84375-63.078125-88.5-6.867188 12.726563-3.6875 28.917969 8.152344 38.007813 15.839844 12.160156 24.925781 30.5625 24.925781 50.496094 0 35.066406-28.527344 63.59375-63.597656 63.59375-7.414063 0-42.785157-4.199219-186.65625-58.25-11.316407-4.253907-23.582031-1.214844-31.652344 6.761719 3.226563 9.207031 10.25 17.242187 21.101563 21.320312 71.53125 26.875 166.375 60.167969 197.207031 60.167969 51.695312 0 93.597656-41.902344 93.597656-93.597657zm0 0" fill="#a05a4b"/><path d="m34.914062 167.285156c-36.554687-36.550781-36.554687-95.8125 0-132.363281 36.550782-36.554687 95.8125-36.554687 132.367188 0 21.800781 21.800781 65.320312 112.40625 96.898438 181.988281 13.636718 30.050782-17.226563 60.910156-47.273438 47.277344-69.585938-31.578125-160.191406-75.101562-181.992188-96.902344zm0 0" fill="#f7a16e"/><path d="m264.179688 216.910156c-31.578126-69.582031-75.101563-160.1875-96.898438-181.988281-20.296875-20.296875-47.59375-29.304687-74.117188-27.0625-1.101562 14.425781 8.382813 27.925781 22.898438 31.417969 11.328125 2.726562 21.703125 8.554687 30.003906 16.855468 21.75 21.757813 77.746094 145.335938 90.792969 173.175782 1.203125 2.652344.652344 4.957031-1.636719 6.851562-9.285156 7.6875-12.75 19.785156-9.886718 30.726563 27.011718 5.160156 51.203124-22.742188 38.84375-49.976563zm0 0" fill="#ce795f"/><path d="m477.585938 107.726562c36.550781 36.550782 36.550781 95.8125 0 132.367188-36.554688 36.550781-95.816407 36.550781-132.367188 0-21.800781-21.800781-65.324219-112.410156-96.902344-181.992188-13.632812-30.050781 17.226563-60.910156 47.277344-47.277343 69.582031 31.578125 160.191406 75.101562 181.992188 96.902343zm0 0" fill="#ce795f"/><path d="m477.585938 107.726562c-21.800782-21.800781-112.410157-65.324218-181.992188-96.898437-10.554688-4.792969-21.207031-4.085937-30 .140625.0625 11.351562 6.585938 22.179688 17.601562 27.175781 26.59375 12.070313 151.855469 69.480469 173.175782 90.796875 24.796875 24.796875 24.796875 65.144532 0 89.9375-12.011719 12.011719-27.980469 18.628906-44.96875 18.628906-14.929688 0-27.308594 10.910157-29.613282 25.1875 32.558594 10.828126 69.882813 3.3125 95.796876-22.601562 36.550781-36.554688 36.550781-95.816406 0-132.367188zm0 0" fill="#b66652"/><path d="m346.679688 292.125c-.769532-.25-1.5625-.382812-2.371094-.382812-8.441406 0-10.402344 11.953124-2.359375 14.621093 35.289062 11.710938 58.988281 44.558594 58.96875 81.738281 0 47.617188-38.515625 86.082032-86.089844 86.101563h-.160156c-34.761719 0-162.414063-47.667969-194.40625-59.6875-11.816407-4.480469-18.3125-14.902344-18.3125-26.410156 0-11.414063 6.414062-21.914063 18.3125-26.410157 44.277343-16.632812 82.46875-30.101562 113.507812-40.042968 17.492188-5.59375 62.488281-19.648438 80.898438-19.648438h.160156c4.132813 0 7.5-3.359375 7.5-7.5 0-4.128906-3.367187-7.5-7.5-7.5-38.464844.140625-162.832031 46.753906-199.847656 60.648438-17.8125 6.671875-28.03125 22.898437-28.03125 40.453125 0 17.394531 10.078125 33.722656 28.03125 40.449219 37.0625 13.917968 161.535156 60.507812 199.847656 60.648437 41.308594-.03125 77.574219-24.898437 93.152344-61.75 5.269531-12.460937 7.9375-25.699219 7.9375-39.351563 0-44.667968-28.980469-82.625-69.238281-95.976562zm0 0"/><path d="m262.25 262.242188c12.042969-12.039063 16.8125-30.742188 8.769531-48.429688-19.628906-43.25-37.21875-80.007812-52.277343-109.25-9.8125-19.039062-31.1875-59.855469-46.148438-74.949219-39.484375-39.480469-103.480469-39.488281-142.972656 0-31.316406 31.316407-38.113282 78.5625-18.898438 116.828125 1.894532 3.777344 6.429688 5.175782 10.058594 3.339844 3.699219-1.859375 5.199219-6.367188 3.339844-10.066406-15.933594-31.765625-11.210938-72.171875 16.109375-99.492188 33.609375-33.609375 88.058593-33.683594 121.761719 0 24.460937 24.195313 81.207031 148.570313 95.371093 179.792969 5.203125 11.503906 2.421875 23.453125-5.730469 31.609375-8.152343 8.148438-20.105468 10.9375-31.621093 5.726562-43.144531-19.574218-112.8125-52.101562-153.359375-76.589843-12.5-7.519531-21.878906-14.1875-26.421875-18.777344-2.925781-2.929687-7.664063-2.945313-10.609375 0-2.917969 2.917969-2.917969 7.679687 0 10.609375 5.839844 5.800781 14.871094 12.277344 29.28125 21.007812 31.390625 18.953126 83.507812 45 154.917968 77.410157 17.421876 7.917969 36.152344 3.507812 48.429688-8.769531zm0 0"/><path d="m509.316406 150.742188c-1.796875-7.679688-4.5-15.140626-8.027344-22.167969-1.28125-2.5625-3.851562-4.140625-6.710937-4.140625-1.167969 0-2.300781.269531-3.359375.800781-3.691406 1.847656-5.191406 6.367187-3.339844 10.058594 0 .011719.011719.011719.011719.011719 5.957031 11.890624 9.109375 25.238281 9.109375 38.597656-.011719 23-8.972656 44.621094-25.222656 60.890625-16.257813 16.25-37.878906 25.199219-60.878906 25.210937-23-.011718-44.621094-8.960937-60.878907-25.21875-4.589843-4.542968-11.261719-13.921875-18.78125-26.421875-23.25-38.460937-54.480469-104.628906-76.589843-153.359375-1.761719-3.878906-2.648438-7.871094-2.648438-11.859375-.011719-7.328125 2.96875-14.351562 8.378906-19.761719 5.398438-5.40625 12.421875-8.378906 19.761719-8.378906 3.988281 0 7.976563.898438 11.847656 2.648438 43.011719 19.523437 79.539063 37 108.582031 51.960937 17.980469 9.25 33.050782 17.539063 44.789063 24.640625 12.480469 7.5 21.859375 14.171875 26.417969 18.78125 1.421875 1.410156 3.300781 2.1875 5.3125 2.1875 2 0 3.878906-.777344 5.300781-2.1875 2.917969-2.929687 2.917969-7.691406 0-10.609375-5.851563-5.8125-14.878906-12.292969-29.28125-21.023437-31.390625-18.949219-83.507813-44.988282-154.917969-77.410156-5.820312-2.648438-11.882812-3.98828175-18.023437-3.98828175h-.027344c-5.769531.03124995-11.378906 1.19140575-16.679687 3.47265575-5.121094 2.1875-9.730469 5.316407-13.699219 9.289063-3.972657 3.96875-7.101563 8.578125-9.292969 13.699219-2.277344 5.300781-3.449219 10.910156-3.46875 16.679687-.011719 6.140625 1.328125 12.210938 3.988281 18.050781 19.640625 43.289063 37.230469 80.050782 52.28125 109.25 9.410157 18.269532 17.859375 33.640626 25.128907 45.679688 8.730468 14.398438 15.210937 23.429688 21.019531 29.269531 9.632812 9.640625 20.882812 17.109375 33.433593 22.199219 12.117188 4.921875 24.910157 7.410156 38.019532 7.410156h.070312c13.109375 0 25.898438-2.488281 38.019532-7.410156 12.539062-5.089844 23.789062-12.558594 33.429687-22.199219s17.109375-20.890625 22.199219-33.449219c4.921875-12.121093 7.410156-24.921874 7.410156-38.039062 0-7.792969-.902344-15.582031-2.683594-23.164062zm0 0"/><path d="m51.640625 112.363281c-2.539063 3.273438-1.941406 7.984375 1.332031 10.523438l133.515625 103.535156c3.265625 2.535156 7.980469 1.949219 10.519531-1.332031 2.539063-3.273438 1.941407-7.984375-1.328124-10.519532l-133.515626-103.535156c-3.273437-2.539062-7.984374-1.945312-10.523437 1.328125zm0 0"/><path d="m231.769531 215.117188c1.550781 0 3.113281-.480469 4.453125-1.472657 3.332032-2.460937 4.035156-7.15625 1.574219-10.488281l-105.957031-143.347656c-2.464844-3.332032-7.160156-4.035156-10.488282-1.574219-3.332031 2.464844-4.035156 7.160156-1.574218 10.492187l105.957031 143.347657c1.46875 1.988281 3.738281 3.042969 6.035156 3.042969zm0 0"/><path d="m100.695312 100.300781c-2.929687 2.929688-2.929687 7.675781 0 10.605469l80.425782 80.429688c2.933594 2.925781 7.679687 2.925781 10.609375 0 2.925781-2.933594 2.925781-7.679688 0-10.609376l-80.429688-80.425781c-2.929687-2.929687-7.675781-2.929687-10.605469 0zm0 0"/><path d="m457.773438 165.300781c2.238281 0 4.453124-.996093 5.933593-2.902343 2.539063-3.273438 1.941407-7.984376-1.332031-10.523438l-133.515625-103.535156c-3.273437-2.539063-7.980469-1.945313-10.519531 1.332031-2.539063 3.269531-1.941406 7.980469 1.328125 10.519531l133.515625 103.535156c1.367187 1.0625 2.984375 1.574219 4.589844 1.574219zm0 0"/><path d="m279.125 61.113281c-3.332031 2.464844-4.035156 7.160157-1.574219 10.492188l105.957031 143.347656c1.472657 1.988281 3.738282 3.042969 6.039063 3.042969 1.546875 0 3.109375-.480469 4.449219-1.46875 3.332031-2.464844 4.035156-7.160156 1.574218-10.492188l-105.957031-143.347656c-2.460937-3.332031-7.160156-4.035156-10.488281-1.574219zm0 0"/><path d="m409.347656 176.65625c1.921875 0 3.839844-.730469 5.304688-2.195312 2.929687-2.929688 2.929687-7.675782 0-10.605469l-80.425782-80.425781c-2.929687-2.929688-7.675781-2.929688-10.605468 0-2.929688 2.929687-2.929688 7.675781 0 10.605468l80.425781 80.425782c1.464844 1.464843 3.382813 2.195312 5.300781 2.195312zm0 0"/><path d="m156.175781 409.15625c-.519531 4.109375 2.390625 7.863281 6.5 8.382812l167.617188 21.199219c.320312.039063.640625.058594.953125.058594 3.722656 0 6.953125-2.769531 7.429687-6.558594.519531-4.109375-2.390625-7.863281-6.496093-8.382812l-167.621094-21.199219c-4.113282-.527344-7.863282 2.390625-8.382813 6.5zm0 0"/><path d="m319.132812 338.367188-176.285156 26.4375c-4.097656.613281-6.921875 4.433593-6.308594 8.53125.558594 3.71875 3.757813 6.386718 7.410157 6.386718.367187 0 .742187-.027344 1.121093-.082031l176.285157-26.441406c4.097656-.613281 6.917969-4.433594 6.304687-8.527344-.613281-4.097656-4.433594-6.921875-8.527344-6.304687zm0 0"/><path d="m305.019531 396.519531c4.144531 0 7.5-3.355469 7.5-7.5 0-4.140625-3.355469-7.5-7.5-7.5h-113.738281c-4.144531 0-7.5 3.359375-7.5 7.5 0 4.144531 3.355469 7.5 7.5 7.5zm0 0"/></svg>