<?xml version="1.0" encoding="iso-8859-1"?>
<!-- Generator: Adobe Illustrator 19.0.0, SVG Export Plug-In . SVG Version: 6.00 Build 0)  -->
<svg version="1.1" id="Capa_1" xmlns="http://www.w3.org/2000/svg" xmlns:xlink="http://www.w3.org/1999/xlink" x="0px" y="0px"
	 viewBox="0 0 512 512" style="enable-background:new 0 0 512 512;" xml:space="preserve">
<path style="fill:#FFDE55;" d="M89.741,484.507c20.05-13.138,56.313-31.888,99.867-31.81l2.834-26.921
	c-42.617-8.993-74.178-34.884-91.054-51.91c-8.654-8.73-23.053-7.868-30.483,1.923c-8.78,11.571-18.19,28.305-20.333,48.66
	c-2.143,20.354,3.576,38.681,9.754,51.827C65.555,487.402,79.46,491.243,89.741,484.507z"/>
<path style="fill:#FFCD00;" d="M192.442,425.776c-34.587-7.299-61.891-25.728-79.974-41.514
	c-14.042,21.67-22.083,53.026-19.131,97.943c20.623-12.916,55.202-29.583,96.271-29.509L192.442,425.776z"/>
<path style="fill:#FFDE55;" d="M217.688,332.75c-9.559,21.982-21.911,60.892-14.472,103.807l-26.054,7.344
	c-16.067-40.483-46.921-67.214-66.553-80.969c-10.067-7.053-11.651-21.392-3.256-30.37c9.921-10.61,24.823-22.713,44.522-28.265
	c19.699-5.553,38.729-3.013,52.73,0.853C216.452,308.422,222.589,321.478,217.688,332.75z"/>
<path style="fill:#FFCD00;" d="M177.161,443.9l26.054-7.344c-6.83-39.399,3.021-75.411,12.078-98.06
	c-30.413-0.519-67.674,5.687-93.076,33.187C140.927,386.817,164.002,410.743,177.161,443.9z"/>
<path style="fill:#898890;" d="M88.209,388.353c-31.84-22.908-59.234-23.516-59.508-23.519l0.104-15.453
	c1.303,0.006,32.324,0.451,68.43,26.428L88.209,388.353z"/>
<circle style="fill:#FFEB99;" cx="19.435" cy="357.906" r="19.435"/>
<path style="fill:#898890;" d="M110.185,360.449c-31.708-31.196-37.388-61.697-37.615-62.979l15.213-2.714
	c0.049,0.268,5.279,27.167,33.24,54.676L110.185,360.449z"/>
<g>
	<circle style="fill:#FFEB99;" cx="79.386" cy="286.793" r="19.435"/>
	<path style="fill:#FFEB99;" d="M81.639,420.618c23.968,0.373,64.506,5.193,100.517,29.692l17.448-20.695
		c-30.234-31.353-41.837-70.491-46.255-94.051c-2.265-12.081-14.67-19.446-26.314-15.508c-13.76,4.653-30.937,13.228-44.13,28.875
		c-13.192,15.647-18.739,34.027-21,48.375C59.993,409.447,69.349,420.428,81.639,420.618z"/>
</g>
<path style="fill:#FFDE55;" d="M199.605,429.615c-25.249-26.183-37.499-57.791-43.427-81.227
	c-26.34,10.873-49.535,32.469-58.965,73.054c23.87,2.143,55.879,9.094,84.945,28.868L199.605,429.615z"/>
<path style="fill:#FFC477;" d="M386.49,120.959c0,28.512-23.113,51.625-51.625,51.625c-28.512,0-51.625-23.114-51.625-51.625
	s23.113-96.798,51.625-96.798C363.376,24.161,386.49,92.448,386.49,120.959z"/>
<path style="fill:#FFA748;" d="M329.598,120.959c0-20.176,11.575-60.263,28.446-81.982c-6.97-8.974-14.844-14.817-23.18-14.817
	c-28.512,0-51.625,68.287-51.625,96.798c0,28.512,23.113,51.625,51.625,51.625c8.338,0,16.208-1.989,23.18-5.499
	C341.176,158.593,329.598,141.133,329.598,120.959z"/>
<path style="fill:#72CEF7;" d="M403.537,102.191L244.756,169.49c-27.057,11.468-44.632,38.005-44.632,67.391V440.04h269.48V145.946
	C469.604,111.911,434.873,88.91,403.537,102.191z"/>
<path style="fill:#FFBDCD;" d="M480.438,398.607H189.29c-24.778,0-39.877,27.299-26.673,48.266
	c13.243,21.027,35.808,40.966,73.771,40.966h196.952c37.962,0,60.528-19.939,73.771-40.966
	C520.316,425.906,505.216,398.607,480.438,398.607z"/>
<path style="fill:#FFA4BA;" d="M288.127,446.872c-13.205-20.966,1.895-48.266,26.672-48.266H189.29
	c-24.778,0-39.877,27.299-26.673,48.266c13.243,21.027,35.808,40.966,73.771,40.966h125.51
	C323.935,487.84,301.37,467.9,288.127,446.872z"/>
<path style="fill:#D7F3FF;" d="M403.537,102.191l-158.782,67.298c-27.057,11.468-44.632,38.005-44.632,67.391v20.873
	c0,29.073,23.787,52.86,52.86,52.86l0,0c29.073,0,52.86-23.787,52.86-52.86v-29.226c0-15.962,13.06-29.021,29.022-29.021l0,0
	c15.962,0,29.022,13.06,29.022,29.021v71.506c0,29.073,23.787,52.86,52.859,52.86l0,0c29.073,0,52.859-23.787,52.859-52.86v-47.924
	V145.946C469.604,111.911,434.873,88.91,403.537,102.191z"/>
<g>
	<path style="fill:#BDEBFF;" d="M442.558,346.102c-16.104-9.085-27.046-26.356-27.046-46.069v-40.45
		c0-70.846-64.686-60.077-80.648-60.077l0,0c15.962,0,29.022,13.06,29.022,29.021v71.506c0,29.073,23.787,52.859,52.859,52.859l0,0
		C426.106,352.893,434.911,350.417,442.558,346.102L442.558,346.102z"/>
	<path style="fill:#BDEBFF;" d="M251.749,257.754v-91.229l-6.994,2.964c-27.057,11.468-44.632,38.005-44.632,67.391v20.873
		c0,29.073,23.787,52.86,52.86,52.86l0,0c9.36,0,18.166-2.477,25.813-6.791C262.692,294.737,251.749,277.466,251.749,257.754z"/>
</g>
<g>
</g>
<g>
</g>
<g>
</g>
<g>
</g>
<g>
</g>
<g>
</g>
<g>
</g>
<g>
</g>
<g>
</g>
<g>
</g>
<g>
</g>
<g>
</g>
<g>
</g>
<g>
</g>
<g>
</g>
</svg>
