<svg id="Layer_1" enable-background="new 0 0 140 140" height="512" viewBox="0 0 140 140" width="512" xmlns="http://www.w3.org/2000/svg" xmlns:x="http://ns.adobe.com/Extensibility/1.0/" xmlns:i="http://ns.adobe.com/AdobeIllustrator/10.0/" xmlns:graph="http://ns.adobe.com/Graphs/1.0/"><path d="m134 70c0 3.7202148-.3200073 7.3701172-.9299927 10.9199219-4.5700073 26.6000977-25.5599976 47.590332-52.1599731 52.1503906-3.5400391.6098633-7.1900025.9296875-10.9100342.9296875-35.3399658 0-64-28.6499023-64-64 0-35.3398438 28.6600342-64 64-64 35.3500366 0 64 28.6601562 64 64z" fill="#344d5b"/><path d="m133.0700073 80.9199219c-4.5700073 26.6000977-25.5599976 47.590332-52.1599731 52.1503906l-36.25-36.2602539-.1100464-.1000977c-.039978-.0400391-.0899658-.0800781-.1300049-.1201172-6.3999634-6.1699219-10.5699463-14.6098633-11.2199707-24.0400391-.0100098-.0698242-.0100098-.1499023-.0100098-.2099609-.039978-.6396484-.0700073-1.2797852-.0700073-1.9296875 0-.1298828-.0199585-.2602539-.0199585-.3999023 0-.4799805.0199585-.9501953.039978-1.4204102.0100098-.1699219.0100098-.3398438.0200195-.5097656.0199585-.4199219.0599976-.8398438.0899658-1.2597656.0200195-.2402344.0400391-.4804688.0700073-.7202148.039978-.4101562.0900269-.8100586.1500244-1.2099609.0299683-.25.0700073-.5.1099854-.7402344.0599976-.3999023.1300049-.7895508.210022-1.1899414.039978-.2397461.0899658-.4799805.1399536-.7197266.0900269-.3901367.1799927-.7900391.2800293-1.1699219.0499878-.2304688.1099854-.4599609.1799927-.6904297.0999756-.3999023.210022-.7900391.3300171-1.1699219.0599976-.2099609.1300049-.4199218.1999512-.6298828.1300049-.3999023.2600098-.7998047.4100342-1.2001953.0499878-.1499023.1099854-.2900391.1699829-.4399414.5200195-1.3901367 1.1300049-2.7299805 1.8099976-4.0297852.1000366-.1899414.2000122-.3798828.2999878-.5600586.1700439-.3300781.3600464-.6499023.5500488-.9702148.1399536-.2299805.2699585-.4599609.4099731-.6899414.1799927-.2900391.3699951-.5795898.5599976-.8696289.1600342-.25.3200073-.4902344.4899902-.7402344.1900024-.2597656.3699951-.5302734.5599976-.7900391.2000122-.2597656.3900146-.5200195.5900269-.7797852.1799927-.2299805.3599854-.4604492.5499878-.6899414.2299805-.2900391.4700317-.5800781.7200317-.8603516.1599731-.1899414.3199463-.3798828.4799805-.5600586.3300171-.3598633.6599731-.7197266 1-1.0698242.0999756-.0898438.1900024-.1899414.2799683-.2900391 1.3200073-1.3300781 2.7400513-2.5600586 4.2400513-3.6699219.25-.1899414.5099487-.3701172.7599487-.5400391.2700195-.2001953.5500488-.3901367.8300171-.5698242.0499878-.0400391.1000366-.0800781.1500244-.1103516.0899658-.0600586.1799927-.1000977.2600098-.159668.4899902-.3203125.9899902-.6201172 1.5-.9199219.1499634-.0800781.289978-.1704102.4400024-.25.5999756-.3300781 1.1999512-.6601562 1.8199463-.9599609.0300293-.0102539.0599976-.0302734.0900269-.050293.6699829-.3198242 1.3400269-.6201172 2.0299683-.8999023.1300049-.0600586.2600098-.1103516.3900146-.1601562.5599974-.2197264 1.119995-.4296873 1.6900023-.6298826.1699829-.0498047.3300171-.1098633.5-.1699219.6500244-.2099609 1.3099976-.4101562 1.9700317-.5800781.039978-.0200195.0799561-.0302734.1300049-.0400391.75-.2001953 1.5199585-.3701172 2.289978-.5200195.0499878-.0102539.0900269-.0200195.1400146-.0297852.7299805-.1401367 1.4699707-.25 2.2199707-.3500977.0599976-.0102539.1199951-.0102539.1799927-.0200195 1.3500366-.1699219 2.7200317-.2700195 4.1199951-.2802734.0599976 0 .1300049-.0097656.1900024-.0097656h.2600099c1.0100098 0 1.9899902.0498047 2.9800415.1298828.1699829.0102539.3499756.0200195.5299683.0400391.3699951.0302734.75.0800781 1.1199951.1298828.210022.0200195.4299927.050293.6400146.0800781.3499756.0498047.710022.1103516 1.0700073.1699219.2199707.0400391.4400024.0703125.6499634.1201172.3500367.0600586.7000122.1401367 1.0500489.2099609.2099609.0498047.4299927.1000977.6399536.1499023.3500366.090332.710022.1801758 1.0599976.2700195.1900024.050293.3699951.1103516.5599976.1601562.3699951.1098633.75.2197266 1.1100464.3398438.1399536.050293.2799683.1000977.4199829.1401367.4199828.1499024.830017.2900392 1.2399901.4399415.0100098.0102539.0200195.0102539.0300293.0200195.1799927.0600586.3599854.1298828.539978.2001953.0499878.0200195.0900269.0498047.1400146.0698242 1.5199585.6098633 2.9899902 1.3203125 4.3999634 2.1201172.1400146.0800781.2800293.1601562.4100342.2397461 1.3699951.800293 2.6900024 1.6801758 3.9400024 2.6499023.1399536.1103516.289978.2304688.4299927.340332.5700073.4599609 1.1300049.9199219 1.6799927 1.409668.039978.0400391.0800171.0703125.1300049.1103516.5700073.5200195 1.1199951 1.0600586 1.6599731 1.6098633z" opacity=".1"/><circle cx="70.004" cy="70.013" fill="#e7a14e" r="36.897"/><path d="m106.6607819 65.8132401-13.2225495-10.8384858-10.7451935-5.9557113-5.1224747-2.8319511c-.01017 0-.01017 0-.01017-.0104218 0-.01017-.0106735-.01017-.0106735-.01017l-.1662445-.0937958-3.6756134-2.0302315-1.4473648-.8017197-.5617676-.3228226c.135231.041687.7183533.1873398 1.5719223.2081833h.1042252c.4890594.0104218 1.0828552-.0312653 1.7279892-.1664963.0833817-.0208435.1667557-.0312653.2501297-.0521088.176918-.041687.3645096-.0937958.5622711-.1563301 2.2592545-.6975021 5.0080872-2.5714035 7.1839676-7.2360764.176918.0625305.3645096.1354866.5414276.2081833 6.5800095 2.6136017 12.2439117 7.0800056 16.3257217 12.7543259 3.5917283 4.9872438 5.9658814 10.9116899 6.6943971 17.3356287z" fill="#e7a14e"/><path d="m73.7078629 44.0424728-1.4473648-.8017197-.5617676-.3228226-.031517-.0104218h-23.2178765l-1.718338-1.5200691c.9684715-.8017197 1.9888-1.5513306 3.0508118-2.2386665 5.2368584-3.4356537 11.3903351-5.5805244 18.0328712-5.9554596.6354828-.0414314 1.2811279-.0622749 1.9262695-.0729523l3.1341858 8.6313362.4163589 1.1558113.0727005.1977615.0106812.0208435.1977615.5518494z" fill="#4288b9"/><path d="m78.2472229 80.9206161c-.0208435.135231-.0411758.2811356-.0625305.4267883-.4163666 2.7696762-.9054337 5.5286713-1.4468613 8.2564011-.6248016 3.175621-1.3121338 6.2887115-2.0304794 9.2874069-.051857.1873398-.093544.3749313-.135231.5726929-.1875992.7704544-.3746796 1.5304947-.5724411 2.2905273-.1042175.4372101-.218605.8538284-.3228226 1.2806168-.1977615.7600327-.3960342 1.5096436-.5831223 2.2488327-.0625305.1875916-.1148911.3853531-.1560669.5831146-.0940552.3228226-.1774292.635231-.2602921.9476318-.8851013.0622711-1.7808685.0935364-2.6761322.0935364-9.9328003 0-18.9489822-3.9252243-25.581356-10.317894 2.9049035-36.1702193 21.8747292-50.2989615 26.3205452-53.1204909.0106735 0 .0106735-.0104218.0106735-.0104218.5831146-.3749313.9161072-.5518494.9161072-.5518494h4.6852646.01017c.3126526.7287674.6039581 1.4783783.8642502 2.2488327 0 0 0 0 .0106735.0104218.1042175.3124046.218605.6352272.312149.9580498.0106735.0208435.0208435.041687.0208435.0622787.073204.2602921.1560745.5205841.218605.7808762.1148911.3853531.2292786.7704544.3228226 1.1662331.0940552.3434105.166748.6870804.2501221 1.0411682.0828705.3434143.1560745.6975021.228775 1.05159.0732117.3538361.1357422.7079239.1977615 1.0724373.0732117.364254.125061.7287674.1875916 1.093277.2913055 1.8322144.4895782 3.7376366.6039658 5.6951675.0208435.3955231.041687.7912979.0625305 1.186821.3019791 6.8197135-.2918167 14.2535514-1.3955154 21.645954z" fill="#feda6f"/><path d="m106.9002304 70.0091782c0 10.9218597-4.7371216 20.729599-12.2754288 27.4763565.3228226-1.447113.6039581-2.8527985.8332367-4.2269592.0625305-.3436661.1143875-.6873322.1662445-1.0203247.041687-.2501221.083374-.4895706.1148911-.7290192.051857-.3329926.093544-.6766586.135231-1.009903.135231-1.0203247.2501221-2.0302353.3329926-3.008873.031517-.3853531.0625305-.7600327.0940475-1.134964.01017-.1977615.0208435-.3851013.041687-.5726929.0208435-.4372101.0416946-.8642502.062027-1.2910385 0-.1143875.0106735-.2394485.0106735-.3540878.0106812-.3225708.0208435-.6453934.0310135-.9578018.3645096-18.532608-7.9440002-29.0797882-13.7538071-34.1608276-2.9465942-2.5820808-5.2577057-3.7584801-5.4554672-3.8522797-.0106735-.0104218-.0106735-.0104218-.0106735-.0104218.1042175.2915611.1982651.5935402.2918091.8955193.01017.0312653.0208435.0729523.0310135.1146393 0 0 .0106735 0 .0106735.01017.083374.2602921.1560745.5205841.228775.7912979.176918.6143799.3436661 1.2493515.4895706 1.8950005l-.8952637-2.7902641-.3228226-.9788933-.6980057-2.1863022s.8540802.0521088 2.3843155.2290268c3.8108444.4580536 11.8280487 1.7803574 21.2194214 5.3410759 3.5917282 4.9872437 5.9658813 10.9116898 6.694397 17.3356285.1560746 1.3744125.2394486 2.7798385.2394486 4.1959381z" fill="#4288b9"/><path d="m76.352478 42.9075089c-.0727005 0-.5104218 0-1.2496109.0521088-.4682159.0208435-1.0513306.0727005-1.7386703.1456528-.0310059 0-.0625305.0104218-.093544.0208435-.2602921.0208435-.5414276.0521088-.8327255.0937958-.0625381.0104218-.1148987.0104218-.1774292.0208435-.4682236.0625305-.9679642.135231-1.5093918.218605 0 0 0 .0104218-.0106735.0104218-9.2871513 1.5409126-27.77808 7.3402977-37.5446358 29.1006393-.0620232-.8434067-.093544-1.6969833-.093544-2.5612411 0-11.5570793 5.3100662-21.8645554 13.628746-28.6217384.9684715-.8017197 1.9888-1.5513306 3.0508118-2.2386665 6.3512344-.6349716 13.5875664-.1248055 21.7186546 2.1969795.4585648.1248093.9166183.2602921 1.3746719.4059448.9994812.3019791 2.0091248.6352272 3.0401306.9994812.1459046.0521124.2913056.1042212.4372101.15633z" fill="#dd584d"/><path d="m83.6406631 35.7232857c-1.9155884 3.1964607-3.6959457 5.7681198-4.8936996 7.41325-.9369507 1.3014603-1.5200653 2.0198059-1.5200653 2.0198059l-.1662445-.0625305-3.4880142-1.4158478-1.1347122-.4580536-.7391968-.3019791-.031517-.0104218c.01017-.4788971-.051857-.9994812-.166748-1.5617561-.4580536-2.2592545-1.8637314-5.1328926-3.6857834-8.1524391.6354828-.0414314 1.2811279-.0622749 1.9262695-.0729523h.2602921c4.6125641 0 9.0268555.8434105 13.0979919 2.3947411.176918.0625305.3645095.1354866.5414275.2081833z" fill="#feda6f"/><path d="m82.6930389 49.019043c-2.9465942-2.5820808-5.2577057-3.7584801-5.4554672-3.8522797.1042175.3124046.218605.6352272.312149.9580498.0106735.0208435.0208435.041687.0208435.0622787.073204.2602921.1560745.5205841.218605.7808762.1148911.3853531.2292786.7704544.3228226 1.1662331.0940552.3434105.166748.6870804.2501221 1.0411682.0828705.3434143.1560745.6975021.228775 1.05159.0732117.3538361.1357422.7079239.1977615 1.0724373.0732117.364254.125061.7287674.1875916 1.093277.2913055 1.8322144.4895782 3.7376366.6039658 5.6951675.0208435.3955231.041687.7912979.0625305 1.186821.3019791 6.8197136-.2918167 14.2535515-1.3955154 21.6459541-.0208435.135231-.0411758.2811356-.0625305.4267883-.4163666 2.7696762-.9054337 5.5286713-1.4468613 8.2564011-.6248016 3.175621-1.3121338 6.2887115-2.0304794 9.2874069-.051857.1873398-.093544.3749313-.135231.5726929-.1875992.7704544-.3746796 1.5304947-.5724411 2.2905273-.1042175.4372101-.218605.8538284-.3228226 1.2806168-.1977615.7600327-.3960342 1.5096436-.5831223 2.2488327-.0625305.1875916-.1148911.3853531-.1560669.5831146-.0940552.3228226-.1774292.635231-.2602921.9476318 8.4020538-.6039658 16.033905-4.0190277 21.9372559-9.3186722.01017-.0104218.01017-.0104218.01017-.0104218.3228226-1.447113.6039581-2.8527985.8332367-4.2269592.0625305-.3436661.1143875-.6873322.1662445-1.0203247.041687-.2501221.083374-.4895706.1148911-.7290192.051857-.3329926.093544-.6766586.135231-1.009903.135231-1.0203247.2501221-2.0302353.3329926-3.008873.031517-.3749313.0625305-.7600327.0940475-1.134964.01017-.1977615.0208435-.3851013.041687-.5726929.0208435-.4372101.0416946-.8642502.062027-1.2910385 0-.1143875.0106735-.2394485.0106735-.3540878.0106812-.3225708.0208435-.6453934.0310135-.9578018.3645096-18.5326079-7.9440002-29.0797881-13.7538071-34.1608275z" fill="#dd584d"/><ellipse cx="74.607" cy="43.55" fill="#fff" rx="6.784" ry="4.135"/></svg>