<svg height="512pt" viewBox="0 -3 512 512" width="512pt" xmlns="http://www.w3.org/2000/svg"><path d="m138.09375.667969h-42.042969c-7.75 0-14.078125 6.332031-14.078125 14.089843v15.816407l34.207032 17.332031 35.960937-17.332031v-15.816407c0-7.757812-6.328125-14.089843-14.046875-14.089843zm0 0" fill="#e6e6e6" fill-rule="evenodd"/><path d="m24.578125 30.574219h187.195313c13.53125 0 24.582031 11.0625 24.582031 24.605469v426.035156c0 13.515625-11.050781 24.605468-24.582031 24.605468h-187.195313c-13.527344 0-24.578125-11.089843-24.578125-24.605468v-426.035156c0-13.546876 11.050781-24.605469 24.578125-24.605469zm0 0" fill="#616d80" fill-rule="evenodd"/><path d="m23.882812 481.214844v-426.035156c0-13.546876 11.050782-24.605469 24.582032-24.605469h-23.886719c-13.527344 0-24.578125 11.058593-24.578125 24.605469v426.035156c0 13.515625 11.050781 24.605468 24.578125 24.605468h23.886719c-13.53125 0-24.582032-11.089843-24.582032-24.605468zm0 0" fill="#3f4c63" fill-rule="evenodd"/><path d="m99.832031 14.757812c0-7.757812 6.328125-14.089843 14.078125-14.089843h-17.859375c-7.75 0-14.078125 6.332031-14.078125 14.089843v15.816407h17.859375zm0 0" fill="#b3b3b3" fill-rule="evenodd"/><path d="m136.976562 75.46875h-10.789062v-10.804688c0-4.425781-3.585938-8.011718-8.011719-8.011718-4.421875 0-8.011719 3.585937-8.011719 8.011718v10.804688h-10.785156c-4.425781 0-8.011718 3.589844-8.011718 8.011719 0 4.425781 3.585937 8.011719 8.011718 8.011719h10.785156v10.804687c0 4.425781 3.589844 8.011719 8.011719 8.011719 4.425781 0 8.011719-3.585938 8.011719-8.011719v-10.804687h10.789062c4.421876 0 8.007813-3.589844 8.007813-8.011719 0-4.425781-3.585937-8.011719-8.007813-8.011719zm0 0" fill="#e6e6e6"/><path d="m151.171875 256.5625c-21.160156.242188-19.585937-16.089844-16.648437-26.152344l22.035156-62.449218c4.632812-14.636719-19.097656-22.96875-29.117188-7.304688l-53.097656 76.875-18.101562 26.179688c-10.746094 15.027343-.878907 26.785156 9.414062 26.785156h28.304688c16.527343 0 11.199218 14.453125 5.449218 29.515625l-22.917968 64.539062c-5.296876 12.605469 11.867187 28.878907 29 10.578125l59.210937-93.117187c5.480469-8.667969 27.152344-43.996094 2.269531-45.453125h-15.800781zm0 0" fill="#edcf56" fill-rule="evenodd"/><path d="m77.945312 274.410156c-8.324218-.910156-8.203124-4.941406.214844-16.695312l71.105469-104.148438c-2.664063-.847656-6.207031-1.726562-9.746094-1.089844-4.753906.847657-9.507812 4.183594-12.078125 8.179688l-53.097656 76.875-18.101562 26.179688c-10.746094 15.03125-.878907 26.785156 9.414062 26.785156h28.304688c16.527343 0 11.199218 14.457031 5.449218 29.515625l-22.917968 64.542969c-5.296876 12.601562 11.867187 28.875 29 10.574218l3.089843-4.878906c-8.808593-1.335938-14.320312-10.695312-10.988281-18.605469l19.433594-54.117187c10.867187-24.304688-1.878906-42.484375-18.375-43.121094-6.71875-.269531-15.347656.578125-20.707032.003906zm0 0" fill="#db993d" fill-rule="evenodd"/><path d="m138.335938 478.710938h-37.59375c-4.425782 0-8.011719-3.585938-8.011719-8.011719 0-4.421875 3.585937-8.007813 8.011719-8.007813h37.59375c4.425781 0 8.011718 3.585938 8.011718 8.007813 0 4.425781-3.585937 8.011719-8.011718 8.011719zm0 0" fill="#e6e6e6"/><path d="m413.742188 0h-42.046876c-7.71875 0-14.046874 6.335938-14.046874 14.0625v15.816406l34.207031 17.363282 35.929687-17.363282v-15.820312c0-7.722656-6.324218-14.058594-14.042968-14.058594zm0 0" fill="#e6e6e6" fill-rule="evenodd"/><path d="m300.226562 29.878906h187.195313c13.527344 0 24.578125 11.089844 24.578125 24.632813v426.007812c0 13.542969-11.050781 24.601563-24.578125 24.601563h-187.195313c-13.53125 0-24.582031-11.058594-24.582031-24.601563v-426.007812c0-13.542969 11.050781-24.632813 24.582031-24.632813zm0 0" fill="#616d80" fill-rule="evenodd"/><path d="m299.527344 480.519531v-426.007812c0-13.542969 11.050781-24.632813 24.582031-24.632813h-23.882813c-13.53125 0-24.582031 11.089844-24.582031 24.632813v426.007812c0 13.542969 11.050781 24.601563 24.582031 24.601563h23.882813c-13.53125 0-24.582031-11.058594-24.582031-24.601563zm0 0" fill="#3f4c63" fill-rule="evenodd"/><path d="m375.507812 14.058594c0-7.726563 6.328126-14.058594 14.046876-14.058594h-17.859376c-7.71875 0-14.046874 6.332031-14.046874 14.058594v15.820312h17.859374zm0 0" fill="#b3b3b3" fill-rule="evenodd"/><path d="m412.621094 74.773438h-10.785156v-10.808594c0-4.425782-3.589844-8.011719-8.011719-8.011719-4.425781 0-8.011719 3.589844-8.011719 8.011719v10.808594h-10.789062c-4.421876 0-8.007813 3.585937-8.007813 8.007812 0 4.425781 3.585937 8.011719 8.007813 8.011719h10.789062v10.839843c0 4.421876 3.585938 8.007813 8.011719 8.007813 4.421875 0 8.011719-3.585937 8.011719-8.007813v-10.839843h10.785156c4.425781 0 8.011718-3.585938 8.011718-8.011719 0-4.421875-3.585937-8.007812-8.011718-8.007812zm0 0" fill="#e6e6e6"/><path d="m413.984375 478.015625h-37.597656c-4.425781 0-8.011719-3.585937-8.011719-8.011719 0-4.425781 3.589844-8.011718 8.011719-8.011718h37.597656c4.421875 0 8.007813 3.585937 8.007813 8.011718 0 4.425782-3.585938 8.011719-8.007813 8.011719zm0 0" fill="#e6e6e6"/><g fill-rule="evenodd"><path d="m466.109375 350.253906h-138.550781c-5.871094 0-10.683594 4.785156-10.683594 10.664063v54.785156c0 5.878906 4.8125 10.695313 10.683594 10.695313h138.550781c5.871094 0 10.6875-4.816407 10.6875-10.695313v-54.785156c0-5.878907-4.816406-10.664063-10.6875-10.664063zm0 0" fill="#55cf63"/><path d="m463.113281 242.230469h-138.582031c-5.871094 0-10.652344 4.785156-10.652344 10.695312v54.785157c0 5.878906 4.78125 10.664062 10.652344 10.664062h138.582031c5.871094 0 10.6875-4.785156 10.6875-10.664062v-54.785157c-.003906-5.910156-4.816406-10.695312-10.6875-10.695312zm0 0" fill="#55cf63"/><path d="m461.507812 134.203125h-138.578124c-5.875 0-10.65625 4.820313-10.65625 10.699219v54.785156c0 5.875 4.78125 10.695312 10.65625 10.695312h138.578124c5.875 0 10.6875-4.820312 10.6875-10.695312v-54.785156c0-5.878906-4.8125-10.699219-10.6875-10.699219zm0 0" fill="#55cf63"/><path d="m339.03125 199.6875v-54.785156c0-5.878906 4.816406-10.699219 10.6875-10.699219h-26.789062c-5.875 0-10.65625 4.820313-10.65625 10.699219v54.785156c0 5.875 4.785156 10.695312 10.65625 10.695312h26.789062c-5.871094 0-10.6875-4.820312-10.6875-10.695312zm0 0" fill="#32a352"/><path d="m340.636719 307.710938v-54.785157c0-5.910156 4.8125-10.695312 10.6875-10.695312h-26.792969c-5.871094 0-10.652344 4.785156-10.652344 10.695312v54.785157c0 5.878906 4.78125 10.664062 10.652344 10.664062h26.792969c-5.875 0-10.6875-4.785156-10.6875-10.664062zm0 0" fill="#32a352"/><path d="m343.632812 360.917969c0-5.878907 4.8125-10.664063 10.6875-10.664063h-26.761718c-5.871094 0-10.683594 4.785156-10.683594 10.664063v54.785156c0 5.878906 4.8125 10.695313 10.683594 10.695313h26.761718c-5.875 0-10.6875-4.816407-10.6875-10.695313zm0 0" fill="#32a352"/></g></svg>