<?xml version="1.0" encoding="iso-8859-1"?>
<!-- Generator: Adobe Illustrator 19.0.0, SVG Export Plug-In . SVG Version: 6.00 Build 0)  -->
<svg version="1.1" id="Capa_1" xmlns="http://www.w3.org/2000/svg" xmlns:xlink="http://www.w3.org/1999/xlink" x="0px" y="0px"
	 viewBox="0 0 512 512" style="enable-background:new 0 0 512 512;" xml:space="preserve">
<path style="fill:#295561;" d="M120.806,319.885c-8.301,0-15.03,6.729-15.03,15.03v112.8c0,8.301,6.729,15.03,15.03,15.03
	s15.03-6.729,15.03-15.03v-112.8C135.837,326.615,129.107,319.885,120.806,319.885z"/>
<path style="fill:#F0B400;" d="M145.897,414.287H95.716c-8.301,0-15.03,6.729-15.03,15.03s6.729,15.03,15.03,15.03h50.181
	c8.301,0,15.03-6.729,15.03-15.03C160.927,421.017,154.198,414.287,145.897,414.287z"/>
<path style="fill:#FFD23D;" d="M120.806,414.287h-25.09c-8.301,0-15.03,6.729-15.03,15.03s6.729,15.03,15.03,15.03h25.091v-30.06
	H120.806z"/>
<circle style="fill:#AEE3E8;" cx="120.81" cy="145.281" r="96.02"/>
<path style="fill:#E0FFFD;" d="M120.806,241.302c-53.032,0-96.023-42.991-96.023-96.023s42.991-96.023,96.023-96.023V241.302z"/>
<path style="fill:#FFD23D;" d="M160.823,329.374H80.789c-8.301,0-15.03,6.729-15.03,15.03s6.729,15.03,15.03,15.03h80.034
	c8.301,0,15.03-6.729,15.03-15.03S169.124,329.374,160.823,329.374z"/>
<path style="fill:#FFE280;" d="M120.806,329.374H80.789c-8.301,0-15.03,6.729-15.03,15.03s6.729,15.03,15.03,15.03h40.017V329.374z"
	/>
<path style="fill:#F0B400;" d="M222.069,336.933H19.543C8.75,336.933,0,328.183,0,317.39v-56.444c0-16.569,13.431-30,30-30h181.612
	c16.569,0,30,13.431,30,30v56.444C241.612,328.183,232.862,336.933,222.069,336.933z"/>
<path style="fill:#FFD23D;" d="M120.806,230.946H30.06c-16.602,0-30.06,13.458-30.06,30.06v56.344
	c0,10.815,8.767,19.583,19.583,19.583h101.224L120.806,230.946L120.806,230.946z"/>
<path style="fill:#172B2E;" d="M391.194,319.885c-8.301,0-15.03,6.729-15.03,15.03v112.8c0,8.301,6.729,15.03,15.03,15.03
	s15.03-6.729,15.03-15.03v-112.8C406.224,326.615,399.495,319.885,391.194,319.885z"/>
<path style="fill:#F0B400;" d="M416.285,414.287h-50.181c-8.301,0-15.03,6.729-15.03,15.03s6.729,15.03,15.03,15.03h50.181
	c8.301,0,15.03-6.729,15.03-15.03C431.315,421.017,424.585,414.287,416.285,414.287z"/>
<path style="fill:#FFD23D;" d="M391.194,414.287h-25.091c-8.301,0-15.03,6.729-15.03,15.03s6.729,15.03,15.03,15.03h25.091V414.287z
	"/>
<circle style="fill:#AEE3E8;" cx="391.19" cy="145.281" r="96.02"/>
<path style="fill:#E0FFFD;" d="M391.194,241.302c-53.032,0-96.023-42.991-96.023-96.023s42.991-96.023,96.023-96.023V241.302z"/>
<path style="fill:#FFD23D;" d="M431.211,329.374h-80.034c-8.301,0-15.03,6.729-15.03,15.03s6.729,15.03,15.03,15.03h80.034
	c8.301,0,15.03-6.729,15.03-15.03S439.512,329.374,431.211,329.374z"/>
<path style="fill:#FFE280;" d="M391.194,329.374h-40.017c-8.301,0-15.03,6.729-15.03,15.03s6.729,15.03,15.03,15.03h40.017V329.374z
	"/>
<path style="fill:#F0B400;" d="M492.457,336.933H289.931c-10.794,0-19.543-8.75-19.543-19.543v-56.444c0-16.569,13.431-30,30-30H482
	c16.569,0,30,13.431,30,30v56.444C512,328.183,503.25,336.933,492.457,336.933z"/>
<path style="fill:#FFD23D;" d="M391.194,230.946h-90.746c-16.602,0-30.06,13.458-30.06,30.06v56.344
	c0,10.815,8.767,19.583,19.583,19.583h101.224V230.946H391.194z"/>
<g>
</g>
<g>
</g>
<g>
</g>
<g>
</g>
<g>
</g>
<g>
</g>
<g>
</g>
<g>
</g>
<g>
</g>
<g>
</g>
<g>
</g>
<g>
</g>
<g>
</g>
<g>
</g>
<g>
</g>
</svg>
