<svg height="512pt" viewBox="0 -16 512.00038 512" width="512pt" xmlns="http://www.w3.org/2000/svg"><path d="m492.808594 323.105469-90.300782 24.300781 24.300782-90.300781c25.5-2.097657 43.5.601562 61.800781 4.199219 3.601563 18.300781 6.300781 36.601562 4.199219 61.800781zm0 0" fill="#c3ea21"/><path d="m492.808594 323.105469-90.300782 24.300781 86.101563-86.101562c3.601563 18.300781 6.300781 36.601562 4.199219 61.800781zm0 0" fill="#9cdd05"/><path d="m302.007812 0v30h-45.003906c-24.898437 0-46 20.101562-46 45h-30c0-16.796875 5.398438-32.398438 15-44.699219 13.5-18.300781 36.402344-30.300781 61-30.300781zm0 0" fill="#b35f49"/><path d="m211.003906 75h-15v-44.699219c13.5-18.300781 36.402344-30.300781 61-30.300781h45.003906v30h-45.003906c-24.898437 0-46 20.101562-46 45zm0 0" fill="#99503d"/><path d="m362.007812 195.003906v57c0 10.203125-.902343 20.402344-2.402343 30.300782l-64.800781 120.003906c-26.699219 24-60.398438 40.199218-95.800782 47.398437l-3 .601563-3-.601563c-93.902344-18.898437-163.003906-102-163.003906-197.703125v-57zm0 0" fill="#fdbf00"/><g fill="#ff9100"><path d="m362.007812 195.003906v57c0 10.203125-.902343 20.402344-2.402343 30.300782l-64.800781 120.003906c-26.699219 24-60.398438 40.199218-95.800782 47.398437l-3 .601563v-255.304688zm0 0"/><path d="m121.003906 240.003906h30v30h-30zm0 0"/><path d="m151.003906 270.003906h30v30.003906h-30zm0 0"/><path d="m121.003906 300.007812h30v30h-30zm0 0"/></g><path d="m287.003906 60h-181c-57.902344 0-106.003906 47.101562-106.003906 105.003906 0 24.898438 20.097656 45 45 45h302.007812c24.902344 0 45-20.101562 45-45 0-57.902344-47.101562-105.003906-105.003906-105.003906zm0 0" fill="#b35f49"/><path d="m392.007812 165.003906c0 24.898438-20.097656 45-45 45h-151.003906v-150.003906h91c57.902344 0 105.003906 47.101562 105.003906 105.003906zm0 0" fill="#99503d"/><path d="m510.511719 311.40625-3.003907-18.601562-87.902343 37.503906 37.503906-87.90625-18.902344-3c-39.898437-6.898438-86.699219 10.5-121.5 45.300781-52.804687 52.503906-62.101562 128.703125-21.300781 169.804687 44.699219 44.703126 122.402344 25.800782 169.800781-21.300781 34.800781-34.800781 52.203125-81.300781 45.304688-121.800781zm0 0" fill="#fff5f5"/><path d="m465.210938 433.207031c-47.402344 47.101563-125.101563 66.003907-169.804688 21.300781l124.203125-124.199218 87.902344-37.503906 3 18.601562c6.898437 40.5-10.503907 87-45.300781 121.800781zm0 0" fill="#efe2dd"/></svg>