<svg height="512pt" viewBox="0 0 512 512" width="512pt" xmlns="http://www.w3.org/2000/svg"><path d="m376 112h-240c-8.285156 0-15-6.714844-15-15v-82c0-8.285156 6.714844-15 15-15h240c8.285156 0 15 6.714844 15 15v82c0 8.285156-6.714844 15-15 15zm-225-30h210v-52h-210zm0 0" fill="#485959"/><path d="m376 0h-120v30h105v52h-105v30h120c8.285156 0 15-6.714844 15-15v-82c0-8.285156-6.714844-15-15-15zm0 0" fill="#3f4a4a"/><path d="m497 512h-482c-8.285156 0-15-6.714844-15-15v-400c0-8.285156 6.714844-15 15-15h482c8.285156 0 15 6.714844 15 15v400c0 8.285156-6.714844 15-15 15zm0 0" fill="#e1ebf0"/><path d="m497 82h-241v430h241c8.285156 0 15-6.714844 15-15v-400c0-8.285156-6.714844-15-15-15zm0 0" fill="#cde1e6"/><path d="m286 452h-60c-8.285156 0-15-6.714844-15-15v-62.058594l-53.742188 31.03125c-7.175781 4.140625-16.351562 1.683594-20.492187-5.492187l-30-51.960938c-1.988281-3.445312-2.527344-7.539062-1.496094-11.382812 1.027344-3.839844 3.542969-7.117188 6.988281-9.105469l53.742188-31.03125-53.742188-31.027344c-7.175781-4.144531-9.632812-13.316406-5.492187-20.492187l30-51.960938c1.992187-3.445312 5.265625-5.960937 9.109375-6.988281 3.839844-1.03125 7.9375-.492188 11.382812 1.496094l53.742188 31.03125v-62.058594c0-3.980469 1.578125-7.792969 4.394531-10.605469 2.8125-2.816406 6.625-4.394531 10.605469-4.394531h60c8.285156 0 15 6.714844 15 15v62.058594l53.742188-31.03125c7.175781-4.140625 16.347656-1.683594 20.492187 5.492187l30 51.960938c1.988281 3.445312 2.527344 7.539062 1.496094 11.382812-1.027344 3.839844-3.542969 7.117188-6.988281 9.105469l-53.742188 31.03125 53.742188 31.027344c7.175781 4.144531 9.632812 13.316406 5.492187 20.492187l-30 51.960938c-1.992187 3.445312-5.265625 5.960937-9.109375 6.988281-3.839844 1.03125-7.9375.492188-11.382812-1.496094l-53.742188-31.03125v62.058594c0 3.980469-1.578125 7.792969-4.394531 10.605469-2.8125 2.816406-6.625 4.394531-10.605469 4.394531zm0 0" fill="#fc0023"/><path d="m399.742188 328.027344-53.742188-31.027344 53.742188-31.027344c3.445312-1.992187 5.960937-5.265625 6.988281-9.109375 1.03125-3.84375.492187-7.9375-1.496094-11.382812l-30-51.960938c-4.144531-7.175781-13.316406-9.628906-20.492187-5.488281l-53.742188 31.027344v-62.058594c0-8.285156-6.714844-15-15-15h-30v310h30c3.980469 0 7.792969-1.578125 10.605469-4.394531 2.816406-2.8125 4.394531-6.625 4.394531-10.605469v-62.058594l53.742188 31.03125c3.445312 1.988282 7.542968 2.523438 11.382812 1.496094 3.84375-1.027344 7.117188-3.542969 9.109375-6.988281l30-51.960938c4.140625-7.175781 1.683594-16.347656-5.492187-20.492187zm0 0" fill="#c9001c"/><path d="m497 30h-482c-8.285156 0-15-6.714844-15-15s6.714844-15 15-15h482c8.285156 0 15 6.714844 15 15s-6.714844 15-15 15zm0 0" fill="#bb6a00"/><path d="m497 0h-241v30h241c8.285156 0 15-6.714844 15-15s-6.714844-15-15-15zm0 0" fill="#aa6000"/></svg>