<svg height="464pt" viewBox="-16 0 464 464" width="464pt" xmlns="http://www.w3.org/2000/svg"><path d="m344 424h64v40h-64zm0 0" fill="#b9b9b9"/><path d="m344 432h64v16h-64zm0 0" fill="#9c9c9c"/><path d="m112 464h-80c-17.671875 0-32-14.328125-32-32v-181.113281c-.00390625-12.417969 2.890625-24.667969 8.449219-35.773438l39.550781-79.113281v-128c0-4.417969 3.582031-8 8-8h32c4.417969 0 8 3.582031 8 8v128l39.550781 79.113281c5.558594 11.105469 8.453125 23.355469 8.449219 35.773438v181.113281c0 17.671875-14.328125 32-32 32zm0 0" fill="#6b9777"/><path d="m96 112h-48v24l-39.550781 79.113281c-5.558594 11.105469-8.45312525 23.355469-8.449219 35.773438v181.113281c0 17.671875 14.328125 32 32 32h80c17.671875 0 32-14.328125 32-32v-181.113281c.003906-12.417969-2.890625-24.667969-8.449219-35.773438l-39.550781-79.113281zm0 0" fill="#85bc94"/><path d="m96 48h-48v-40c0-4.417969 3.582031-8 8-8h32c4.417969 0 8 3.582031 8 8zm0 0" fill="#ea9d2d"/><path d="m48 48h48v32h-48zm0 0" fill="#b9b9b9"/><path d="m0 256h144v160h-144zm0 0" fill="#e4e4e2"/><path d="m381.847656 131.34375c-2.007812-6.113281-8.480468-9.554688-14.671875-7.800781-.53125-6.207031-5.726562-10.972657-11.957031-10.972657-6.226562 0-11.421875 4.765626-11.953125 10.972657-6.074219-1.421875-12.222656 2.042969-14.152344 7.976562-1.925781 5.929688 1.011719 12.347657 6.757813 14.769531-3.152344 5.328126-1.734375 12.179688 3.273437 15.816407 5.007813 3.640625 11.960938 2.875 16.054688-1.769531 4.082031 4.691406 11.070312 5.484374 16.101562 1.832031 5.03125-3.65625 6.441407-10.546875 3.242188-15.878907 6.054687-2.214843 9.277343-8.8125 7.304687-14.945312zm0 0" fill="#eac88f"/><path d="m319.40625 30.398438c-2.007812-6.113282-8.480469-9.550782-14.671875-7.796876-.53125-6.207031-5.726563-10.976562-11.953125-10.976562-6.230469 0-11.425781 4.769531-11.957031 10.976562-6.191407-1.773437-12.675781 1.675782-14.664063 7.804688-1.988281 6.125 1.230469 12.726562 7.28125 14.929688-3.285156 5.339843-1.90625 12.308593 3.167969 15.996093 5.070313 3.683594 12.125 2.84375 16.191406-1.933593 4.082031 4.691406 11.070313 5.488281 16.101563 1.832031 5.03125-3.652344 6.4375-10.546875 3.242187-15.878907 6.039063-2.226562 9.246094-8.824218 7.261719-14.953124zm0 0" fill="#fbb540"/><path d="m272.71875 279.246094-2.230469-5.957032c-4.214843-11.230468-4.710937-23.515624-1.417969-35.050781l10.929688-38.238281h-96l10.929688 38.238281c3.292968 11.535157 2.800781 23.820313-1.410157 35.050781l-2.238281 5.957032c-10.105469 26.949218-15.28125 55.496094-15.28125 84.273437v68.480469c0 17.671875 14.328125 32 32 32h48c17.671875 0 32-14.328125 32-32v-68.480469c0-28.777343-5.175781-57.324219-15.28125-84.273437zm0 0" fill="#e4e4e2"/><path d="m264 264h-64c-4.417969 0-8-3.582031-8-8s3.582031-8 8-8h64c4.417969 0 8 3.582031 8 8s-3.582031 8-8 8zm0 0" fill="#916f56"/><path d="m320 336h112v72c0 13.253906-10.746094 24-24 24h-64c-13.253906 0-24-10.746094-24-24zm0 0" fill="#cbcbcb"/><g fill="#b9b9b9"><path d="m352 376h-32c-4.417969 0-8-3.582031-8-8s3.582031-8 8-8h32c4.417969 0 8 3.582031 8 8s-3.582031 8-8 8zm0 0"/><path d="m336 408h-16c-4.417969 0-8-3.582031-8-8s3.582031-8 8-8h16c4.417969 0 8 3.582031 8 8s-3.582031 8-8 8zm0 0"/><path d="m392 376h-8c-4.417969 0-8-3.582031-8-8s3.582031-8 8-8h8c4.417969 0 8 3.582031 8 8s-3.582031 8-8 8zm0 0"/><path d="m376 408h-8c-4.417969 0-8-3.582031-8-8s3.582031-8 8-8h8c4.417969 0 8 3.582031 8 8s-3.582031 8-8 8zm0 0"/></g><path d="m352 312c-4.417969 0-8-3.582031-8-8 0-3.113281-1.289062-4.496094-5.265625-8-6.703125-4.445312-10.730469-11.957031-10.730469-20s4.027344-15.554688 10.730469-20c4-3.488281 5.265625-4.871094 5.265625-8 0-4.417969 3.582031-8 8-8s8 3.582031 8 8c-.234375 7.984375-4.210938 15.390625-10.734375 20-4 3.488281-5.265625 4.871094-5.265625 8s1.289062 4.496094 5.265625 8c6.523437 4.609375 10.5 12.015625 10.734375 20 0 4.417969-3.582031 8-8 8zm0 0" fill="#aedee2"/><path d="m400 312c-4.417969 0-8-3.582031-8-8 0-3.113281-1.289062-4.496094-5.265625-8-6.703125-4.445312-10.730469-11.957031-10.730469-20s4.027344-15.554688 10.730469-20c4-3.488281 5.265625-4.871094 5.265625-8 0-4.417969 3.582031-8 8-8s8 3.582031 8 8c-.234375 7.984375-4.210938 15.390625-10.734375 20-4 3.488281-5.265625 4.871094-5.265625 8s1.289062 4.496094 5.265625 8c6.523437 4.609375 10.5 12.015625 10.734375 20 0 4.417969-3.582031 8-8 8zm0 0" fill="#aedee2"/><path d="m208 176c-4.417969 0-8-3.582031-8-8 0-3.113281-1.289062-4.496094-5.265625-8-6.703125-4.445312-10.730469-11.957031-10.730469-20s4.027344-15.554688 10.730469-20c4-3.488281 5.265625-4.871094 5.265625-8 0-4.417969 3.582031-8 8-8s8 3.582031 8 8c-.234375 7.984375-4.210938 15.390625-10.734375 20-4 3.488281-5.265625 4.871094-5.265625 8s1.289062 4.496094 5.265625 8c6.523437 4.609375 10.5 12.015625 10.734375 20 0 4.417969-3.582031 8-8 8zm0 0" fill="#aedee2"/><path d="m256 176c-4.417969 0-8-3.582031-8-8 0-3.113281-1.289062-4.496094-5.265625-8-6.703125-4.445312-10.730469-11.957031-10.730469-20s4.027344-15.554688 10.730469-20c4-3.488281 5.265625-4.871094 5.265625-8 0-4.417969 3.582031-8 8-8s8 3.582031 8 8c-.234375 7.984375-4.210938 15.390625-10.734375 20-4 3.488281-5.265625 4.871094-5.265625 8s1.289062 4.496094 5.265625 8c6.523437 4.609375 10.5 12.015625 10.734375 20 0 4.417969-3.582031 8-8 8zm0 0" fill="#aedee2"/><path d="m112 320c0 17.671875-14.328125 32-32 32s-32-14.328125-32-32 14.328125-32 32-32 32 14.328125 32 32zm0 0" fill="#e06661"/><path d="m112 384c-.65625.003906-1.308594-.078125-1.945312-.238281l-32-8c-2.832032-.640625-5.09375-2.757813-5.914063-5.542969-.824219-2.785156-.070313-5.792969 1.960937-7.867188 2.03125-2.070312 5.027344-2.878906 7.828126-2.113281l32 8c3.914062.984375 6.484374 4.726563 5.996093 8.734375-.492187 4.003906-3.890625 7.019532-7.925781 7.027344zm0 0" fill="#8d7761"/><path d="m85.847656 350.398438c-2.007812-6.113282-8.480468-9.550782-14.671875-7.796876-.53125-6.207031-5.726562-10.976562-11.957031-10.976562-6.226562 0-11.421875 4.769531-11.953125 10.976562-6.0625-1.398437-12.183594 2.066407-14.109375 7.980469-1.921875 5.914063.992188 12.320313 6.714844 14.753907-3.1875 5.328124-1.785156 12.210937 3.238281 15.863281 5.019531 3.65625 12 2.875 16.089844-1.800781 4.082031 4.691406 11.070312 5.488281 16.101562 1.832031 5.03125-3.652344 6.441407-10.546875 3.242188-15.878907 6.058593-2.210937 9.28125-8.816406 7.304687-14.953124zm0 0" fill="#f9adb1"/><path d="m224.398438 320c-3.441407 0-6.5-2.203125-7.589844-5.472656-5.710938-17.117188-6.410156-35.511719-2.023438-53.015625l1.847656-7.449219c1.070313-4.289062 5.414063-6.898438 9.703126-5.832031 4.289062 1.070312 6.902343 5.414062 5.832031 9.707031l-1.863281 7.453125c-3.648438 14.554687-3.058594 29.851563 1.695312 44.082031.671875 2.015625.511719 4.210938-.4375 6.109375-.953125 1.898438-2.621094 3.339844-4.632812 4.011719-.816407.269531-1.671876.410156-2.53125.40625zm0 0" fill="#9c775c"/><path d="m256 299.054688c-1.527344.003906-3.019531-.4375-4.304688-1.261719-12.316406-7.910157-22.644531-18.546875-30.191406-31.089844l-3.960937-6.582031c-2.273438-3.789063-1.046875-8.707032 2.742187-10.980469 3.789063-2.277344 8.703125-1.050781 10.980469 2.738281l4 6.59375c6.273437 10.421875 14.859375 19.265625 25.09375 25.847656 3 1.921876 4.367187 5.589844 3.355469 9.003907-1.007813 3.414062-4.15625 5.75-7.714844 5.730469zm0 0" fill="#9c775c"/></svg>