<?xml version="1.0" encoding="iso-8859-1"?>
<!-- Generator: Adobe Illustrator 19.0.0, SVG Export Plug-In . SVG Version: 6.00 Build 0)  -->
<svg version="1.1" id="Capa_1" xmlns="http://www.w3.org/2000/svg" xmlns:xlink="http://www.w3.org/1999/xlink" x="0px" y="0px"
	 viewBox="0 0 512.001 512.001" style="enable-background:new 0 0 512.001 512.001;" xml:space="preserve">
<path style="fill:#FFA733;" d="M215.26,128.664v357.605c0,11.206-9.093,20.3-20.3,20.3H22.393c-11.217,0-20.3-9.093-20.3-20.3
	V128.706h4.184c10.74,0.124,41.096,0.093,78.578,0c0.145,24.328,19.316,44.131,43.375,45.322c0.756,0.041,1.522,0.062,2.289,0.062
	c25.126,0,45.508-20.289,45.664-45.384h20.269c5.758-0.01,11.745-0.021,17.938-0.041C214.39,128.664,215.26,128.664,215.26,128.664z
	"/>
<path style="fill:#FF9811;" d="M214.39,128.664c-6.193,0.021-12.18,0.031-17.938,0.041h-20.269
	c-0.155,25.095-20.538,45.384-45.664,45.384c-0.766,0-1.533-0.021-2.289-0.062c-24.059-1.191-43.23-20.994-43.375-45.322
	c-37.482,0.093-67.838,0.124-78.578,0H2.093v94.155c5.748,10.595,13.112,20.559,22.081,29.517
	c24.494,24.494,56.414,37.026,88.521,37.585v0.031h90.458v-0.031c4.091-0.073,8.13-0.331,12.107-0.787V128.664H214.39z"/>
<path style="fill:#FFB655;" d="M344.826,128.426c0,70.168-56.269,127.183-126.137,128.395v0.031h-90.458v-82.825
	c0.756,0.041,1.522,0.062,2.289,0.062c25.126,0,45.508-20.289,45.664-45.384v-0.28c0-25.219-20.445-45.664-45.664-45.664
	c-0.766,0-1.533,0.021-2.289,0.062V0h90.458v0.031C288.556,1.253,344.826,58.258,344.826,128.426z"/>
<path style="fill:#FFC477;" d="M221.329,37.616C195.665,11.962,161.86-0.57,128.231,0.041c-17.783,0.311-35.504,4.288-51.94,11.942
	C63.044,18.135,50.636,26.68,39.71,37.616C14.563,62.763,2.021,95.75,2.093,128.706c0.072,32.78,12.604,65.528,37.616,90.53
	c24.494,24.494,56.414,37.026,88.521,37.585c0.766,0.021,1.522,0.031,2.289,0.031c30.273,0,60.547-10.647,84.741-31.941
	c1.253-1.087,2.475-2.206,3.687-3.366c0.808-0.756,1.595-1.522,2.382-2.31C271.478,169.088,271.478,87.775,221.329,37.616z
	 M84.856,128.426c0-24.453,19.222-44.411,43.375-45.602c0.756-0.041,1.522-0.062,2.289-0.062c25.219,0,45.664,20.445,45.664,45.664
	v0.28c-0.155,25.095-20.538,45.384-45.664,45.384c-0.766,0-1.533-0.021-2.289-0.062c-24.059-1.191-43.23-20.994-43.375-45.322
	L84.856,128.426L84.856,128.426z"/>
<g>
	<path style="fill:#CC7400;" d="M37.949,364.679c0,4.288-3.48,7.768-7.768,7.768H4.289c-0.766,0-1.502-0.114-2.196-0.321v-14.893
		c0.694-0.207,1.429-0.321,2.196-0.321h25.892C34.469,356.911,37.949,360.391,37.949,364.679z"/>
	<path style="fill:#CC7400;" d="M160.565,356.911h-40.744c-4.288,0-7.768,3.48-7.768,7.768c0,4.288,3.48,7.768,7.768,7.768h40.744
		c4.298,0,7.768-3.48,7.768-7.768C168.333,360.391,164.863,356.911,160.565,356.911z M95.378,356.911H54.634
		c-4.298,0-7.768,3.48-7.768,7.768c0,4.288,3.47,7.768,7.768,7.768h40.744c4.288,0,7.768-3.48,7.768-7.768
		C103.146,360.391,99.666,356.911,95.378,356.911z"/>
	<path style="fill:#CC7400;" d="M215.26,358.247v12.863c-1.243,0.839-2.734,1.336-4.35,1.336h-25.892
		c-4.288,0-7.768-3.48-7.768-7.768c0-4.288,3.48-7.768,7.768-7.768h25.892C212.526,356.911,214.017,357.408,215.26,358.247z"/>
</g>
<path style="fill:#ACABB1;" d="M364.729,325.786l12.477,46.285l-190.548,51.436c-21.292,5.739-43.103-3.81-53.767-21.927
	c-0.41-0.681-0.79-1.371-1.162-2.076c-2.563-4.903,0.016-10.92,5.329-12.447l4.345-1.24l200.082-53.783L364.729,325.786z"/>
<path style="fill:#C6C5CA;" d="M341.486,332.037l4.74,17.574l-190.548,51.436c-7.714,2.076-15.491,2.153-22.786,0.534
	c-0.41-0.681-0.79-1.371-1.162-2.076c-2.563-4.903,0.016-10.92,5.329-12.447l4.345-1.24L341.486,332.037z"/>
<path style="fill:#E0E0E2;" d="M186.659,304.812l190.548,51.428l-7.389,27.411l-5.088,18.883L141.404,342.5l-4.345-1.247
	c-5.313-1.518-7.892-7.544-5.329-12.439c1.844-3.532,4.105-6.762,6.7-9.658C150.117,306.09,168.574,299.933,186.659,304.812z"/>
<path style="fill:#C6C5CA;" d="M186.659,304.812l190.548,51.428l-7.389,27.411l-222.218-59.739l-4.345-1.247
	c-2.076-0.597-3.733-1.875-4.825-3.509C150.117,306.09,168.574,299.933,186.659,304.812z"/>
<path style="fill:#78B9EB;" d="M424.301,218.785c-36.224,9.759-57.671,47.037-47.911,83.253c1.804,6.715,4.569,12.919,8.086,18.511
	l-75.981,20.479c-12.779,3.439-20.355,16.598-16.908,29.377c2.881,10.696,12.555,17.745,23.127,17.745
	c2.068,0,4.167-0.271,6.259-0.837l139.894-37.696l-0.007-0.031c35.473-10.263,56.339-47.083,46.695-82.89
	C497.796,230.473,460.518,209.026,424.301,218.785z M443.911,246.878c20.711,1.076,36.627,18.727,35.55,39.438
	c-1.076,20.703-18.727,36.619-39.438,35.543c-20.703-1.077-36.619-18.728-35.543-39.438
	C405.549,261.717,423.209,245.8,443.911,246.878z"/>
<path style="fill:#96C8EF;" d="M291.393,358.024c-3.447,12.779,4.128,25.939,16.908,29.386l75.981,20.471
	c-3.516,5.592-6.281,11.796-8.086,18.511c-9.759,36.224,11.688,73.494,47.912,83.253c36.216,9.759,73.494-11.688,83.253-47.912
	c9.643-35.806-11.223-72.627-46.695-82.89l0.007-0.031l-139.894-37.695c-2.091-0.565-4.19-0.837-6.259-0.837
	C303.948,340.28,294.274,347.328,291.393,358.024z M451.54,407.817c20.021,5.391,31.88,25.993,26.481,46.014
	c-5.391,20.021-25.993,31.871-46.014,26.481c-20.021-5.398-31.88-26.001-26.481-46.014
	C410.917,414.277,431.528,402.419,451.54,407.817z"/>
<circle style="fill:#1E81CE;" cx="318.104" cy="364.865" r="8.218"/>
<g>
</g>
<g>
</g>
<g>
</g>
<g>
</g>
<g>
</g>
<g>
</g>
<g>
</g>
<g>
</g>
<g>
</g>
<g>
</g>
<g>
</g>
<g>
</g>
<g>
</g>
<g>
</g>
<g>
</g>
</svg>
