<?xml version="1.0" encoding="iso-8859-1"?>
<!-- Generator: Adobe Illustrator 19.0.0, SVG Export Plug-In . SVG Version: 6.00 Build 0)  -->
<svg version="1.1" id="Layer_1" xmlns="http://www.w3.org/2000/svg" xmlns:xlink="http://www.w3.org/1999/xlink" x="0px" y="0px"
	 viewBox="0 0 512 512" style="enable-background:new 0 0 512 512;" xml:space="preserve">
<path style="fill:#495A79;" d="M227,60h-32c-24.901,0-45,20.099-45,45v30c0,8.399,6.599,15,15,15h92c8.401,0,15-6.601,15-15v-30
	C272,80.099,251.901,60,227,60z"/>
<path style="fill:#42516D;" d="M272,105v30c0,8.399-6.599,15-15,15h-45V60h15C251.901,60,272,80.099,272,105z"/>
<path style="fill:#D94158;" d="M257,120h-92c-57.9,0-105,47.1-105,105v212c0,24.899,20.099,45,45,45h212c8.401,0,15-6.601,15-15
	c0-8.401,6.599-15,15-15s15-6.601,15-15V225C362,167.1,314.9,120,257,120z"/>
<path style="fill:#CC2944;" d="M362,225v212c0,8.399-6.599,15-15,15s-15,6.599-15,15c0,8.399-6.599,15-15,15H212V120h45
	C314.9,120,362,167.1,362,225z"/>
<g>
	<path style="fill:#E0E4EC;" d="M257,210h-92c-19.799,0-19.799-30,0-30h92C276.799,180,276.799,210,257,210z"/>
	<path style="fill:#E0E4EC;" d="M272,255c0,8.399-6.599,15-15,15h-92c-8.401,0-15-6.601-15-15c0-8.401,6.599-15,15-15h92
		C265.401,240,272,246.599,272,255z"/>
</g>
<path style="fill:#495A79;" d="M257,362c0,24.899-20.099,45-45,45s-47-20.101-47-45c0-24.901,22.099-45,47-45S257,337.099,257,362z"
	/>
<path style="fill:#42516D;" d="M257,362c0,24.899-20.099,45-45,45v-90C236.901,317,257,337.099,257,362z"/>
<g>
	<path style="fill:#D1D7E3;" d="M272,255c0,8.399-6.599,15-15,15h-45v-30h45C265.401,240,272,246.599,272,255z"/>
	<path style="fill:#D1D7E3;" d="M257,210h-45v-30h45C276.799,180,276.799,210,257,210z"/>
</g>
<path style="fill:#E0E4EC;" d="M212,302c-32.999,0-62,26.999-62,60c0,32.999,29.001,60,62,60s60-27.001,60-60
	C272,328.999,244.999,302,212,302z M212,392c-16.5,0-32-13.5-32-30s15.5-30,32-30s30,13.5,30,30S228.5,392,212,392z"/>
<path style="fill:#D1D7E3;" d="M272,362c0,32.999-27.001,60-60,60v-30c16.5,0,30-13.5,30-30s-13.5-30-30-30v-30
	C244.999,302,272,328.999,272,362z"/>
<g>
	<path style="fill:#66728B;" d="M377,377c-16.538,0-30,13.462-30,30v30h60v-30C407,390.462,393.538,377,377,377z"/>
	<path style="fill:#66728B;" d="M407,452h-60c-8.291,0-15-6.709-15-15v-30c0-24.814,20.186-45,45-45s45,20.186,45,45v30
		C422,445.291,415.291,452,407,452z"/>
</g>
<g>
	<path style="fill:#6F7D96;" d="M45,377c-16.538,0-30,13.462-30,30v60c0,16.538,13.462,30,30,30s30-13.462,30-30v-60
		C75,390.462,61.538,377,45,377z"/>
	<path style="fill:#6F7D96;" d="M45,512c-24.814,0-45-20.186-45-45v-60c0-24.814,20.186-45,45-45s45,20.186,45,45v60
		C90,491.814,69.814,512,45,512z"/>
</g>
<path style="fill:#495A79;" d="M422,105v302c0,19.799-30,19.799-30,0V105c0-41.4-33.6-75-75-75h-45c-24.901,0-45,20.099-45,45
	c0,9.899-7.5,15-15,15s-17-5.101-17-15c0-16.8,7.4-32.401,17-44.7C225.5,11.999,247.4,0,272,0h45C374.9,0,422,47.1,422,105z"/>
<g>
	<path style="fill:#42516D;" d="M422,105v362c0,19.799-30,19.799-30,0V105c0-41.4-33.6-75-75-75h-45c-24.901,0-45,20.099-45,45
		c0,9.899-7.5,15-15,15V30.3C225.5,11.999,247.4,0,272,0h45C374.9,0,422,47.1,422,105z"/>
	<path style="fill:#42516D;" d="M497,512H317c-8.291,0-15-6.709-15-15v-30c0-24.814,20.186-45,45-45h120c24.814,0,45,20.186,45,45
		v30C512,505.291,505.291,512,497,512z"/>
</g>
<g>
</g>
<g>
</g>
<g>
</g>
<g>
</g>
<g>
</g>
<g>
</g>
<g>
</g>
<g>
</g>
<g>
</g>
<g>
</g>
<g>
</g>
<g>
</g>
<g>
</g>
<g>
</g>
<g>
</g>
</svg>
