<svg height="512pt" viewBox="-40 0 512 512.00354" width="512pt" xmlns="http://www.w3.org/2000/svg"><path d="m208.25 367.304688-28.761719 104.144531h-27.398437l11.628906-102.183594c.640625-1.621094.773438-3.375.402344-5.015625 0 0 0 0 0-.011719-.25-1.132812-.730469-2.222656-1.433594-3.1875l-67.992188-100.917969-9.335937-13.851562 6.070313-.082031 42.335937-.570313 29.632813-.402344 43.78125 104.996094c2.25 5.410156 2.632812 11.429688 1.070312 17.082032zm0 0" fill="#7f7ce8"/><path d="m164.121094 364.238281c-.25-1.132812-.730469-2.222656-1.433594-3.183593l-67.992188-100.921876-3.265624-13.933593-.351563-1.511719 46.730469 38.679688 26.921875 69.230468c1.113281 3.886719.863281 7.984375-.609375 11.640625zm0 0" fill="#6666d3"/><path d="m145.527344 303.558594 13.488281 50.625c1.613281 5.65625.359375 11.738281-3.355469 16.296875l-53.558594 100.964843h-27.40625l34.542969-114.328124c.761719-2.511719.84375-5.179688.246094-7.738282l-24.125-103.097656 42.222656-.570312" fill="#7f7ce8"/><path d="m74.378906 81.4375 10.535156 24.03125c4.953126 11.289062 18.117188 16.429688 29.410157 11.480469l9.511719-4.171875c11.292968-4.953125 16.433593-18.121094 11.480468-29.410156l-10.535156-24.03125c-4.953125-11.292969-18.121094-16.429688-29.410156-11.480469l-9.511719 4.171875c-11.292969 4.949218-16.433594 18.117187-11.480469 29.410156zm0 0" fill="#fedfc5"/><path d="m135.316406 83.367188-10.539062-24.03125c-4.949219-11.292969-18.117188-16.429688-29.410156-11.480469l-2.660157 1.167969c3.941407 2.296874 7.222657 5.8125 9.195313 10.3125l10.539062 24.03125c4.949219 11.289062-.191406 24.457031-11.480468 29.410156l-6.851563 3.003906c5.953125 3.46875 13.421875 4.144531 20.214844 1.167969l9.511719-4.171875c11.292968-4.953125 16.433593-18.117188 11.480468-29.410156zm0 0" fill="#fecbaa"/><path d="m271.84375 8.511719-32.527344 79.660156c-2.996094 7.34375-8.496094 13.382813-15.519531 17.058594l-27.558594 13.636719-25.890625 12.808593c-2.632812 1.300781-4.328125 3.957031-4.398437 6.894531l-2.550781 106.660157-78.039063 1.050781.507813-70.304688c.015624-1.964843-2.046876-3.253906-3.808594-2.378906l-17.097656 8.503906-14.804688 7.363282-17.320312 57.367187c-1.695313 5.589844-5.101563 10.289063-9.558594 13.59375-4.457032 3.304688-9.949219 5.21875-15.777344 5.21875l7.753906-82.765625c1.230469-13.203125 9.324219-24.785156 21.289063-30.484375l15.015625-6.992187 131.15625-61.105469 21.007812-9.789063c6.578125-3.132812 11.960938-8.335937 15.324219-14.804687l19.765625-37.957031c5.121094-9.839844 15.828125-15.449219 26.839844-14.035156zm0 0" fill="#fedfc5"/><path d="m70.09375 165.253906c.015625-1.964844-2.046875-3.253906-3.808594-2.378906l-17.097656 8.5-14.804688 7.363281-17.320312 57.371094c-1.484375 4.898437-4.28125 9.109375-7.949219 12.300781l-1.613281 17.234375c5.828125 0 11.320312-1.910156 15.777344-5.21875 4.457031-3.304687 7.863281-8.003906 9.558594-13.59375l17.320312-57.371093 14.804688-7.363282 5.03125-2.5zm0 0" fill="#fecbaa"/><path d="m265.652344 7.710938c-5.097656-.65625-10.125.210937-14.570313 2.292968l-27.539062 67.445313c-2.996094 7.34375-8.496094 13.382812-15.519531 17.0625l-27.558594 13.632812-25.890625 12.808594c-2.632813 1.304687-4.328125 3.957031-4.398438 6.894531l-2.550781 106.660156-62.1875.839844-.078125 10.933594 78.042969-1.050781 2.546875-106.660157c.070312-2.9375 1.765625-5.59375 4.398437-6.894531l25.890625-12.808593 27.558594-13.636719c7.023437-3.675781 12.523437-9.714844 15.519531-17.058594l32.527344-79.660156zm0 0" fill="#fecbaa"/><path d="m74.695312 500.480469v-29.035157h27.40625l21.25 28.222657c1.496094 1.988281.078126 4.832031-2.414062 4.832031h-42.222656c-2.21875 0-4.019532-1.800781-4.019532-4.019531zm0 0" fill="#4f7693"/><path d="m151.867188 500.480469v-29.035157h27.402343l21.25 28.222657c1.5 1.988281.082031 4.832031-2.410156 4.832031h-42.222656c-2.21875 0-4.019531-1.800781-4.019531-4.019531zm0 0" fill="#4f7693"/><path d="m196.238281 118.867188-25.890625 12.808593c-2.632812 1.300781-4.328125 3.957031-4.398437 6.894531l-2.550781 106.660157-78.039063 1.050781.507813-70.304688c.015624-1.964843-2.046876-3.253906-3.808594-2.378906l-17.097656 8.503906-13.402344-36.695312 131.152344-61.109375.121093.160156zm0 0" fill="#fd82ac"/><path d="m180.464844 108.144531-25.890625 12.808594c-2.632813 1.300781-4.328125 3.957031-4.398438 6.894531l-1.0625 44.488282c-.832031 34.707031-28.960937 62.542968-63.675781 63.011718l-.078125 10.933594 78.039063-1.050781 2.550781-106.660157c.070312-2.9375 1.765625-5.59375 4.398437-6.898437l25.890625-12.804687-6.050781-15.535157zm0 0" fill="#fd6096"/><path d="m284.964844 284.839844v110.480468c-1.238282-.140624-2.492188-.21875-3.765625-.21875-19.15625 0-34.535157 16.1875-33.191407 35.632813 1.128907 16.425781 14.40625 29.703125 30.835938 30.835937 19.441406 1.339844 35.632812-14.039062 35.632812-33.195312v-112.222656c0-6.679688 4.210938-12.632813 10.507813-14.859375l22.457031-8.589844c3.832032-1.464844 6.605469-4.847656 7.285156-8.894531l6.796876-21.65625c1.71875-10.210938-8.265626-18.449219-17.964844-14.824219l-43.679688 16.335937c-8.945312 3.199219-14.914062 11.675782-14.914062 21.175782zm0 0" fill="#fdb659"/><path d="m344.535156 247.003906c.285156 1.511719.320313 3.117188.039063 4.777344l-6.792969 21.65625c-.683594 4.046875-3.453125 7.429688-7.285156 8.894531l-22.460938 8.589844c-6.296875 2.226563-10.507812 8.179687-10.507812 14.859375v112.222656c0 19.15625-16.1875 34.535156-35.632813 33.191406-1.945312-.132812-3.84375-.441406-5.6875-.902343 5.628907 6.40625 13.660157 10.65625 22.636719 11.273437 19.445312 1.339844 35.632812-14.035156 35.632812-33.191406v-112.222656c0-6.679688 4.210938-12.632813 10.507813-14.863282l22.460937-8.585937c3.828126-1.464844 6.601563-4.851563 7.285157-8.894531l6.792969-21.660156c1.664062-9.863282-7.609376-17.890626-16.988282-15.144532zm0 0" fill="#fd9e28"/><path d="m170.933594 243.808594 1.257812-52.542969c.101563-4.140625-3.175781-7.578125-7.316406-7.679687-4.097656-.097657-7.578125 3.179687-7.679688 7.320312l-1.125 46.917969-63.15625.851562.453126-62.644531c.023437-3.546875-1.757813-6.789062-4.765626-8.667969-3.007812-1.878906-6.703124-2.0625-9.882812-.480469l-9.589844 4.765626-8.164062-22.355469 50.761718-23.652344c1.90625-.417969 3.785157-1.023437 5.609376-1.824219l9.511718-4.171875c2.570313-1.125 4.925782-2.585937 7.03125-4.324219l44.800782-20.871093 8.082031 20.734375-19.738281 9.769531c-5.148438 2.546875-8.433594 7.695313-8.570313 13.4375l-.417969 17.472656c-.097656 4.144531 3.179688 7.582031 7.320313 7.679688 4.109375.09375 7.578125-3.175781 7.675781-7.320313l.417969-17.472656c.003906-.152344.089843-.285156.226562-.351562l53.445313-26.449219c.050781-.023438.097656-.046875.148437-.074219 8.585938-4.484375 15.332031-11.898438 18.992188-20.867188l32.523437-79.664062c.882813-2.15625.710938-4.601562-.460937-6.613281-1.175781-2.011719-3.214844-3.363281-5.527344-3.660157l-6.191406-.796874c-14.066407-1.804688-27.902344 5.433593-34.449219 18.007812l-19.757812 37.960938c-2.59375 4.992187-6.824219 9.070312-11.84375 11.464843l-55.886719 26.039063c.222656-4.542969-.601563-9.109375-2.480469-13.394532l-10.539062-24.027343c-3.199219-7.296875-9.046876-12.910157-16.46875-15.808594-7.421876-2.894531-15.527344-2.726563-22.824219.46875l-9.511719 4.171875c-7.292969 3.199219-12.90625 9.046875-15.804688 16.46875-2.898437 7.421875-2.730468 15.527344.46875 22.824219l10.539063 24.027343c2.101563 4.796876 5.355469 8.859376 9.445313 11.910157l-54.171876 25.238281c-14.277343 6.800781-24.0625 20.808594-25.535156 36.554688l-7.7499998 82.769531c-.1953122 2.101562.4999998 4.1875 1.9218748 5.746093 1.421875 1.5625 3.433594 2.453126 5.546875 2.453126 15.085938 0 28.152344-9.707032 32.511719-24.148438l16.378906-54.273438 11.84375-5.882812c0-.003906.003907-.003906.007813-.003906l10.0625-5.003906-.449219 62.390624v.046876.085937.019531c0 .078125.011719.148438.015625.222656.007812.15625.011719.316407.027344.472657.011718.082031.023437.164062.035156.242187.003906.023438.007812.046875.011719.066406.019531.144532.042969.289063.070312.429688.011719.042969.015625.082031.027344.121094.003906.019531.003906.035156.007813.054687l24.128906 103.101563c.296875 1.269531.253906 2.605468-.125 3.855468l-19.082032 63.160157c-1.199218 3.964843 1.046876 8.148437 5.011719 9.347656.722657.21875 1.453125.324219 2.171875.324219 3.21875 0 6.199219-2.09375 7.175782-5.335938l19.082031-63.15625c1.140625-3.769531 1.269531-7.785156.371093-11.617187l-22-94.015625 18.96875-.253906 13.921876-.1875h.003906l30.746094-.414063 41.824218 100.3125c1.605469 3.851563 1.878906 8.183594.765625 12.199219l-27.238281 98.636718h-13.289062l10.582031-92.992187c1.535156-4.828125.730469-10.046875-2.234375-14.191406l-2.304688-3.421875c-.089844-.382813-.179687-.765625-.289062-1.144532l-13.472656-50.570312c-1.066407-4-5.171876-6.382812-9.179688-5.316406-4.003906 1.066406-6.382812 5.175781-5.316406 9.179687l13.492187 50.628907c.007813.039062.019531.082031.03125.125.941407 3.292968.210938 6.84375-1.953125 9.496093-.3125.382813-.585937.792969-.816406 1.226563l-51.441406 96.980468h-12.792969l4.476563-14.816406c1.195312-3.964844-1.046876-8.148437-5.011719-9.347656-3.960938-1.195312-8.148438 1.042969-9.347657 5.011719l-7.371093 24.394531c-.007813.023438-.011719.042969-.019531.0625l-.007813.027344c-.003906.019531-.007813.039062-.011719.058594-.070312.238281-.128906.476562-.175781.722656-.015625.089844-.023437.175781-.039063.265625-.027343.175781-.050781.355469-.0625.539062-.007812.109375-.015624.222657-.019531.332031 0 .085938-.011719.164063-.011719.25v29.035157c0 6.351562 5.167969 11.519531 11.519532 11.519531h42.222656c4.015625 0 7.621094-2.230469 9.414062-5.824219 1.792969-3.589843 1.40625-7.8125-1.011718-11.019531l-18.378906-24.410156 42.855468-80.78125-8.980468 78.894531c-.296876.808594-.46875 1.675781-.46875 2.585937v29.035157c0 6.355469 5.167968 11.523437 11.519531 11.523437h42.222656c4.015625 0 7.621094-2.230468 9.414063-5.824218 1.792968-3.59375 1.40625-7.816407-1.011719-11.023438l-18.867188-25.058594 27.832031-100.792968c2-7.230469 1.511719-15.03125-1.378906-21.964844zm36.011718-162.53125c8.007813-3.8125 14.667969-10.246094 18.761719-18.109375l19.757813-37.960938c3.089844-5.933593 9.089844-9.738281 15.613281-10.167969l-28.703125 70.300782c-2.3125 5.667968-6.570312 10.355468-11.984375 13.207031l-20.128906 9.960937-7.953125-20.410156zm-115.160156 21.179687-10.539062-24.03125c-1.589844-3.625-1.675782-7.65625-.234375-11.34375 1.441406-3.6875 4.230469-6.597656 7.859375-8.1875l9.511718-4.167969c7.488282-3.285156 16.246094.136719 19.527344 7.621094l10.539063 24.03125c1.589843 3.625 1.671875 7.65625.230469 11.34375-.734376 1.882813-1.824219 3.558594-3.195313 4.960938l-18.289063 8.523437c-6.339843.789063-12.71875-2.609375-15.410156-8.75zm-48.8125 84.832031-17.320312 57.378907c-1.5625 5.183593-5.140625 9.277343-9.734375 11.535156l6.804687-72.625c.980469-10.511719 7.515625-19.867187 16.992188-24.382813l7.605468-3.542968 8.292969 22.714844-8.800781 4.375c-1.851562.917968-3.242188 2.566406-3.839844 4.546874zm39.222656 309.710938v-18.054688h16.164063l13.59375 18.054688zm77.171876 0v-18.050781h16.167968l13.589844 18.050781zm0 0"/><path d="m368.917969 263.398438c1.257812-7.46875-1.476563-14.808594-7.320313-19.632813-5.84375-4.820313-13.570312-6.113281-20.664062-3.460937l-43.636719 16.316406c-11.863281 4.273437-19.832031 15.605468-19.832031 28.21875v102.9375c-9.898438.917968-19.246094 5.464844-26.078125 12.78125-7.792969 8.351562-11.652344 19.25-10.863281 30.691406 1.390624 20.164062 17.640624 36.414062 37.804687 37.804688.976563.066406 1.949219.101562 2.917969.101562 10.367187 0 20.136718-3.835938 27.773437-10.96875 8.234375-7.683594 12.957031-18.550781 12.957031-29.808594v-45.03125c0-4.140625-3.359374-7.5-7.5-7.5-4.144531 0-7.5 3.359375-7.5 7.5v45.027344c0 7.222656-2.910156 13.914062-8.191406 18.847656-5.277344 4.925782-12.175781 7.367188-19.425781 6.863282-12.730469-.875-22.992187-11.136719-23.871094-23.867188-.5-7.25 1.9375-14.148438 6.863281-19.425781 4.933594-5.28125 11.625-8.191407 18.847657-8.191407.9375 0 1.921875.058594 2.925781.171876 2.125.234374 4.246094-.441407 5.839844-1.863282 1.589844-1.421875 2.5-3.457031 2.5-5.589844v-110.480468c0-6.3125 3.996094-11.988282 9.941406-14.113282.03125-.011718.0625-.023437.097656-.039062l43.683594-16.335938c2.898438-1.085937 5.066406.328126 5.863281.984376.757813.625 2.429688 2.34375 2.132813 5.152343l-6.609375 21.074219c-.105469.328125-.183594.660156-.242188 1-.238281 1.417969-1.222656 2.621094-2.566406 3.132812l-22.378906 8.558594c-9.222657 3.308594-15.410157 12.097656-15.410157 21.898438v35.421875c0 4.144531 3.359376 7.5 7.5 7.5 4.144532 0 7.5-3.355469 7.5-7.5v-35.421875c0-3.496094 2.214844-6.625 5.507813-7.789063.0625-.023437.121094-.042969.179687-.066406l22.460938-8.589844c6.105469-2.335937 10.617188-7.699219 11.898438-14.082031l6.65625-21.230469c.101562-.324219.179687-.65625.238281-.996093zm0 0"/><path d="m335.785156 181.164062c.480469.09375.957032.140626 1.429688.140626 3.523437 0 6.664062-2.492188 7.355468-6.078126 1.179688-6.101562 3.320313-10.246093 6.363282-12.316406 1.457031-.992187 2.746094-1.3125 5.289062-1.882812 2.691406-.601563 6.042969-1.355469 10.066406-3.457032 6.355469-3.316406 11.621094-8.542968 15.660157-15.53125 2.070312-3.589843.84375-8.175781-2.742188-10.246093-3.589843-2.074219-8.175781-.84375-10.25 2.742187-2.585937 4.484375-5.820312 7.757813-9.609375 9.738282-2.28125 1.191406-4.195312 1.621093-6.410156 2.117187-3.074219.6875-6.554688 1.472656-10.445312 4.117187-6.433594 4.382813-10.6875 11.738282-12.648438 21.867188-.785156 4.070312 1.871094 8.003906 5.941406 8.789062zm0 0"/><path d="m430.488281 341.765625c-4.792969-7.507813-11-13.101563-18.445312-16.621094-4.644531-2.199219-8.558594-2.992187-11.703125-3.632812-2.875-.582031-4.953125-1.003907-7.101563-2.328125-3.933593-2.425782-6.671875-7.121094-8.128906-13.953125-.863281-4.054688-4.855469-6.636719-8.902344-5.769531-4.050781.863281-6.632812 4.851562-5.769531 8.902343 2.351562 10.992188 7.371094 18.929688 14.929688 23.589844 4.417968 2.722656 8.4375 3.539063 11.984374 4.261719 2.714844.550781 5.277344 1.070312 8.28125 2.492187 4.851563 2.292969 8.960938 6.035157 12.210938 11.128907 1.429688 2.242187 3.851562 3.46875 6.328125 3.46875 1.378906 0 2.777344-.382813 4.027344-1.179688 3.492187-2.226562 4.515625-6.863281 2.289062-10.359375zm0 0"/><path d="m259.207031 214.640625c1.429688 2.242187 3.855469 3.46875 6.328125 3.46875 1.382813 0 2.777344-.382813 4.027344-1.179687 3.492188-2.226563 4.519531-6.863282 2.289062-10.355469-4.792968-7.511719-10.996093-13.105469-18.441406-16.625-4.648437-2.195313-8.5625-2.992188-11.707031-3.628907-2.875-.585937-4.953125-1.007812-7.101563-2.332031-3.933593-2.425781-6.667968-7.121093-8.128906-13.953125-.863281-4.050781-4.851562-6.636718-8.898437-5.769531-4.054688.867187-6.636719 4.851563-5.769531 8.902344 2.347656 10.992187 7.367187 18.929687 14.925781 23.589843 4.417969 2.722657 8.4375 3.539063 11.984375 4.261719 2.714844.550781 5.277344 1.070313 8.28125 2.492188 4.855468 2.292969 8.960937 6.035156 12.210937 11.128906zm0 0"/><path d="m311.664062 198.289062c0 3.96875-3.214843 7.1875-7.183593 7.1875s-7.1875-3.21875-7.1875-7.1875 3.21875-7.183593 7.1875-7.183593 7.183593 3.214843 7.183593 7.183593zm0 0"/><path d="m408.15625 245.230469c0 3.96875-3.21875 7.183593-7.1875 7.183593s-7.1875-3.214843-7.1875-7.183593 3.21875-7.1875 7.1875-7.1875 7.1875 3.21875 7.1875 7.1875zm0 0"/><path d="m382.640625 365.765625c0 3.96875-3.214844 7.183594-7.1875 7.183594-3.96875 0-7.183594-3.214844-7.183594-7.183594s3.214844-7.1875 7.183594-7.1875c3.972656 0 7.1875 3.21875 7.1875 7.1875zm0 0"/><path d="m256.707031 255.566406c0 3.96875-3.21875 7.1875-7.1875 7.1875s-7.183593-3.21875-7.183593-7.1875 3.214843-7.183594 7.183593-7.183594 7.1875 3.214844 7.1875 7.183594zm0 0"/></svg>